<?xml version="1.0" encoding="UTF-8" standalone="no"?>
<svg
   xmlns:dc="http://purl.org/dc/elements/1.1/"
   xmlns:cc="http://creativecommons.org/ns#"
   xmlns:rdf="http://www.w3.org/1999/02/22-rdf-syntax-ns#"
   xmlns:svg="http://www.w3.org/2000/svg"
   xmlns="http://www.w3.org/2000/svg"
   xmlns:sodipodi="http://sodipodi.sourceforge.net/DTD/sodipodi-0.dtd"
   xmlns:inkscape="http://www.inkscape.org/namespaces/inkscape"
   width="16.0952in"
   height="3.59677in"
   viewBox="0 0 1159 259"
   id="svg4289"
   version="1.1"
   inkscape:version="0.91 r13725"
   sodipodi:docname="logo.svg">
  <metadata
     id="metadata4299">
    <rdf:RDF>
      <cc:Work
         rdf:about="">
        <dc:format>image/svg+xml</dc:format>
        <dc:type
           rdf:resource="http://purl.org/dc/dcmitype/StillImage" />
      </cc:Work>
    </rdf:RDF>
  </metadata>
  <defs
     id="defs4297" />
  <sodipodi:namedview
     pagecolor="#ffffff"
     bordercolor="#666666"
     borderopacity="1"
     objecttolerance="10"
     gridtolerance="10"
     guidetolerance="10"
     inkscape:pageopacity="0"
     inkscape:pageshadow="2"
     inkscape:window-width="1920"
     inkscape:window-height="1017"
     id="namedview4295"
     showgrid="false"
     inkscape:zoom="0.87258591"
     inkscape:cx="724.44539"
     inkscape:cy="147.33974"
     inkscape:window-x="-8"
     inkscape:window-y="-8"
     inkscape:window-maximized="1"
     inkscape:current-layer="svg4289" />
  <path
     id="Selection #1"
     d="m 518.24,9 c 1.19,-7.88 11.04,-10.26 16.11,-4.61 8.68,9.68 -1.94,29.74 -13.35,25.61 9.35923,-1.291912 13.29424,-7.151547 15,-15 -10.17,7.52 -19.13,3.04 -17.76,-6 z"
     inkscape:connector-curvature="0"
     style="fill:#ffffff;stroke:none;stroke-width:1;stroke-opacity:1;fill-opacity:1"
     sodipodi:nodetypes="ccccc" />
  <path
     id="Path #1"
     fill="none"
     stroke="black"
     stroke-width="1"
     d="M 59.23,3.00            C 80.05,3.00 92.25,12.47 92.25,29.48              92.25,46.22 80.05,56.38 59.09,56.38              59.09,56.38 37.17,56.38 37.17,56.38              37.17,56.38 37.17,87.22 37.17,87.22              37.17,95.03 40.33,97.64 50.19,97.64              50.19,97.64 57.31,97.64 57.31,97.64              57.31,97.64 57.31,99.00 57.31,99.00              57.31,99.00 0.88,99.00 0.88,99.00              0.88,99.00 0.88,97.64 0.88,97.64              0.88,97.64 5.53,97.64 5.53,97.64              12.52,97.64 14.70,95.31 14.70,88.31              14.70,88.31 14.70,13.58 14.70,13.58              14.70,6.84 12.23,4.38 5.53,4.38              5.53,4.38 0.73,4.38 0.73,4.38              0.73,4.38 0.73,3.00 0.73,3.00              0.73,3.00 59.23,3.00 59.23,3.00 Z            M 51.02,55.00            C 63.75,55.00 70.33,45.67 70.33,30.03              70.33,13.02 63.75,4.38 51.42,4.38              51.42,4.38 39.91,4.38 39.91,4.38              37.86,4.38 37.17,5.06 37.17,7.12              37.17,7.12 37.17,55.00 37.17,55.00              37.17,55.00 51.02,55.00 51.02,55.00 Z            M 184.12,98.33            C 184.12,98.33 183.44,99.00 183.44,99.00              183.44,99.00 99.73,99.00 99.73,99.00              99.73,99.00 99.73,97.64 99.73,97.64              99.73,97.64 104.25,97.64 104.25,97.64              111.23,97.64 113.44,95.31 113.44,88.33              113.44,88.33 113.44,13.59 113.44,13.59              113.44,6.58 111.23,4.38 104.25,4.38              104.25,4.38 99.73,4.38 99.73,4.38              99.73,4.38 99.73,3.00 99.73,3.00              99.73,3.00 181.38,3.00 181.38,3.00              181.38,3.00 182.06,3.69 182.06,3.69              182.06,3.69 186.45,38.73 186.45,38.73              186.45,38.73 185.08,39.02 185.08,39.02              178.36,11.66 171.52,4.38 159.33,4.38              159.33,4.38 138.64,4.38 138.64,4.38              136.58,4.38 135.89,5.06 135.89,7.12              135.89,7.12 135.89,50.00 135.89,50.00              135.89,50.00 150.69,50.00 150.69,50.00              161.92,50.00 165.62,45.61 165.62,32.28              165.62,32.28 167.00,32.28 167.00,32.28              167.00,32.28 167.00,69.58 167.00,69.58              167.00,69.58 165.62,69.58 165.62,69.58              165.62,55.89 161.92,51.38 150.69,51.38              150.69,51.38 135.89,51.38 135.89,51.38              135.89,51.38 135.89,94.77 135.89,94.77              135.89,96.81 136.58,97.50 138.64,97.64              138.64,97.64 161.66,97.64 161.66,97.64              174.67,97.78 182.34,88.19 187.81,61.92              187.81,61.92 189.19,62.05 189.19,62.05              189.19,62.05 184.12,98.33 184.12,98.33 Z            M 302.17,84.77            C 302.17,94.11 295.88,100.00 284.64,100.00              271.77,100.00 264.23,92.05 264.23,76.38              264.23,54.38 259.44,49.00 247.11,49.00              247.11,49.00 232.17,49.00 232.17,49.00              232.17,49.00 232.17,88.22 232.17,88.22              232.17,95.28 234.50,97.64 241.48,97.64              241.48,97.64 246.42,97.64 246.42,97.64              246.42,97.64 246.42,99.00 246.42,99.00              246.42,99.00 195.73,99.00 195.73,99.00              195.73,99.00 195.73,97.64 195.73,97.64              195.73,97.64 200.39,97.64 200.39,97.64              207.52,97.64 209.84,95.28 209.84,88.22              209.84,88.22 209.84,13.47 209.84,13.47              209.84,6.55 207.52,4.38 200.53,4.38              200.53,4.38 195.73,4.38 195.73,4.38              195.73,4.38 195.73,3.00 195.73,3.00              195.73,3.00 257.92,3.00 257.92,3.00              276.83,3.00 287.11,11.56 287.11,24.31              287.11,37.88 275.33,47.23 259.30,47.23              259.30,47.23 259.30,47.64 259.30,47.64              277.25,47.64 287.38,56.16 287.38,75.97              287.38,89.84 289.16,95.08 293.81,95.08              298.06,95.08 300.81,90.53 300.81,84.77              300.81,84.77 302.17,84.77 302.17,84.77 Z            M 247.11,47.23            C 259.16,47.23 265.33,38.69 265.33,24.98              265.33,11.97 259.16,4.52 248.47,4.52              248.47,4.52 234.91,4.52 234.91,4.52              232.86,4.52 232.17,5.19 232.17,7.22              232.17,7.22 232.17,47.23 232.17,47.23              232.17,47.23 247.11,47.23 247.11,47.23 Z            M 412.17,84.77            C 412.17,94.11 405.88,100.00 394.64,100.00              381.77,100.00 374.23,92.05 374.23,76.38              374.23,54.38 369.44,49.00 357.11,49.00              357.11,49.00 342.17,49.00 342.17,49.00              342.17,49.00 342.17,88.22 342.17,88.22              342.17,95.28 344.50,97.64 351.48,97.64              351.48,97.64 356.42,97.64 356.42,97.64              356.42,97.64 356.42,99.00 356.42,99.00              356.42,99.00 305.73,99.00 305.73,99.00              305.73,99.00 305.73,97.64 305.73,97.64              305.73,97.64 310.39,97.64 310.39,97.64              317.52,97.64 319.84,95.28 319.84,88.22              319.84,88.22 319.84,13.47 319.84,13.47              319.84,6.55 317.52,4.38 310.53,4.38              310.53,4.38 305.73,4.38 305.73,4.38              305.73,4.38 305.73,3.00 305.73,3.00              305.73,3.00 367.92,3.00 367.92,3.00              386.83,3.00 397.11,11.56 397.11,24.31              397.11,37.88 385.33,47.23 369.30,47.23              369.30,47.23 369.30,47.64 369.30,47.64              387.25,47.64 397.38,56.16 397.38,75.97              397.38,89.84 399.16,95.08 403.81,95.08              408.06,95.08 410.81,90.53 410.81,84.77              410.81,84.77 412.17,84.77 412.17,84.77 Z            M 357.11,47.23            C 369.16,47.23 375.33,38.69 375.33,24.98              375.33,11.97 369.16,4.52 358.47,4.52              358.47,4.52 344.91,4.52 344.91,4.52              342.86,4.52 342.17,5.19 342.17,7.22              342.17,7.22 342.17,47.23 342.17,47.23              342.17,47.23 357.11,47.23 357.11,47.23 Z            M 508.44,4.38            C 508.44,4.38 506.80,4.38 506.80,4.38              500.48,4.38 495.42,8.62 488.58,21.52              488.58,21.52 468.70,58.83 468.70,58.83              468.70,58.83 468.70,88.03 468.70,88.03              468.70,95.31 471.17,97.64 478.84,97.64              478.84,97.64 483.78,97.64 483.78,97.64              483.78,97.64 483.78,99.00 483.78,99.00              483.78,99.00 430.22,99.00 430.22,99.00              430.22,99.00 430.22,97.64 430.22,97.64              430.22,97.64 435.56,97.64 435.56,97.64              443.50,97.64 446.11,95.31 446.11,88.03              446.11,88.03 446.11,61.44 446.11,61.44              446.11,61.44 419.25,12.20 419.25,12.20              415.83,5.89 412.55,4.38 405.83,4.38              405.83,4.38 403.36,4.38 403.36,4.38              403.36,4.38 403.36,3.00 403.36,3.00              403.36,3.00 455.28,3.00 455.28,3.00              455.28,3.00 455.28,4.38 455.28,4.38              455.28,4.38 450.48,4.38 450.48,4.38              446.66,4.38 444.19,6.58 444.19,9.73              444.19,11.64 444.88,13.44 445.83,15.34              445.83,15.34 468.16,56.22 468.16,56.22              468.16,56.22 485.56,23.44 485.56,23.44              488.03,18.92 489.53,15.22 489.53,12.33              489.53,6.98 485.56,4.38 477.47,4.38              477.47,4.38 473.23,4.38 473.23,4.38              473.23,4.38 473.23,3.00 473.23,3.00              473.23,3.00 508.44,3.00 508.44,3.00              508.44,3.00 508.44,4.38 508.44,4.38 Z            M 556.12,61.34            C 558.88,85.45 574.62,98.95 592.84,99.36              603.67,99.50 611.89,92.75 611.89,83.38              611.89,59.97 554.34,66.58 554.34,30.20              554.34,13.39 568.33,1.00 587.78,1.00              604.77,1.00 611.47,9.41 618.19,9.41              621.61,9.41 623.25,7.06 623.25,1.14              623.25,1.14 624.62,1.14 624.62,1.14              624.62,1.14 624.62,32.00 624.62,32.00              624.62,32.00 623.25,32.00 623.25,32.00              619.02,14.22 606.41,2.52 589.56,2.52              579.00,2.52 571.75,10.22 571.75,19.05              571.75,47.16 630.11,38.88 630.11,73.05              630.11,89.72 616.69,101.00 595.58,101.00              574.89,101.00 568.19,89.44 561.33,89.44              557.91,89.44 556.12,92.89 556.12,99.00              556.12,99.00 554.89,99.00 554.89,99.00              554.89,99.00 554.89,61.34 554.89,61.34              554.89,61.34 556.12,61.34 556.12,61.34 Z            M 813.73,4.38            C 806.75,4.38 804.42,6.56 804.42,13.52              804.42,13.52 804.42,88.25 804.42,88.25              804.42,95.30 806.75,97.64 813.73,97.64              813.73,97.64 818.12,97.64 818.12,97.64              818.12,97.64 818.12,99.00 818.12,99.00              818.12,99.00 769.08,99.00 769.08,99.00              769.08,99.00 769.08,97.64 769.08,97.64              769.08,97.64 772.91,97.64 772.91,97.64              779.77,97.64 782.09,95.30 782.09,88.25              782.09,88.25 782.09,52.38 782.09,52.38              782.09,52.38 739.89,52.38 739.89,52.38              739.89,52.38 739.89,88.25 739.89,88.25              739.89,95.30 742.09,97.64 749.08,97.64              749.08,97.64 752.91,97.64 752.91,97.64              752.91,97.64 752.91,99.00 752.91,99.00              752.91,99.00 703.73,99.00 703.73,99.00              703.73,99.00 703.73,97.64 703.73,97.64              703.73,97.64 708.25,97.64 708.25,97.64              715.23,97.64 717.44,95.30 717.44,88.25              717.44,88.25 717.44,13.52 717.44,13.52              717.44,6.56 715.23,4.38 708.25,4.38              708.25,4.38 703.73,4.38 703.73,4.38              703.73,4.38 703.73,3.00 703.73,3.00              703.73,3.00 752.91,3.00 752.91,3.00              752.91,3.00 752.91,4.38 752.91,4.38              752.91,4.38 749.08,4.38 749.08,4.38              742.09,4.38 739.89,6.56 739.89,13.52              739.89,13.52 739.89,51.00 739.89,51.00              739.89,51.00 782.09,51.00 782.09,51.00              782.09,51.00 782.09,13.52 782.09,13.52              782.09,6.56 779.77,4.38 772.78,4.38              772.78,4.38 769.08,4.38 769.08,4.38              769.08,4.38 769.08,3.00 769.08,3.00              769.08,3.00 818.12,3.00 818.12,3.00              818.12,3.00 818.12,4.38 818.12,4.38              818.12,4.38 813.73,4.38 813.73,4.38 Z            M 923.34,48.11            C 923.34,82.69 901.42,101.00 871.42,101.00              845.25,101.00 823.47,84.34 823.47,52.80              823.47,22.50 843.89,1.00 875.39,1.00              903.34,1.00 923.34,19.33 923.34,48.11 Z            M 847.86,52.80            C 847.86,81.45 857.72,99.64 873.20,99.64              888.27,99.64 898.95,81.73 898.95,47.16              898.95,18.36 889.64,2.38 873.89,2.38              858.41,2.38 847.86,20.16 847.86,52.80 Z            M 1061.20,4.38            C 1053.67,4.38 1050.94,7.12 1050.94,14.67              1050.94,14.67 1050.94,87.62 1050.94,87.62              1050.94,94.62 1053.12,97.64 1060.11,97.64              1060.11,97.64 1064.91,97.64 1064.91,97.64              1064.91,97.64 1064.91,99.00 1064.91,99.00              1064.91,99.00 1015.58,99.00 1015.58,99.00              1015.58,99.00 1015.58,97.64 1015.58,97.64              1015.58,97.64 1019.28,97.64 1019.28,97.64              1026.27,97.64 1028.47,94.62 1028.47,87.62              1028.47,87.62 1028.47,9.45 1028.47,9.45              1028.47,9.45 988.88,99.00 988.88,99.00              988.88,99.00 987.78,99.00 987.78,99.00              987.78,99.00 944.34,15.77 944.34,15.77              944.34,15.77 944.34,78.84 944.34,78.84              944.34,93.39 947.36,97.64 956.67,97.64              956.67,97.64 961.61,97.64 961.61,97.64              961.61,97.64 961.61,99.00 961.61,99.00              961.61,99.00 928.73,99.00 928.73,99.00              928.73,99.00 928.73,97.64 928.73,97.64              928.73,97.64 932.56,97.64 932.56,97.64              940.52,97.64 942.98,93.39 942.98,78.84              942.98,78.84 942.98,13.56 942.98,13.56              942.98,6.84 940.52,4.38 933.66,4.38              933.66,4.38 929.42,4.38 929.42,4.38              929.42,4.38 929.42,3.00 929.42,3.00              929.42,3.00 963.39,3.00 963.39,3.00              963.39,3.00 998.88,72.81 998.88,72.81              998.88,72.81 1029.83,3.00 1029.83,3.00              1029.83,3.00 1064.91,3.00 1064.91,3.00              1064.91,3.00 1064.91,4.38 1064.91,4.38              1064.91,4.38 1061.20,4.38 1061.20,4.38 Z            M 1155.12,98.33            C 1155.12,98.33 1154.44,99.00 1154.44,99.00              1154.44,99.00 1070.73,99.00 1070.73,99.00              1070.73,99.00 1070.73,97.64 1070.73,97.64              1070.73,97.64 1075.25,97.64 1075.25,97.64              1082.23,97.64 1084.44,95.31 1084.44,88.33              1084.44,88.33 1084.44,13.59 1084.44,13.59              1084.44,6.58 1082.23,4.38 1075.25,4.38              1075.25,4.38 1070.73,4.38 1070.73,4.38              1070.73,4.38 1070.73,3.00 1070.73,3.00              1070.73,3.00 1152.38,3.00 1152.38,3.00              1152.38,3.00 1153.06,3.69 1153.06,3.69              1153.06,3.69 1157.45,38.73 1157.45,38.73              1157.45,38.73 1156.08,39.02 1156.08,39.02              1149.36,11.66 1142.52,4.38 1130.33,4.38              1130.33,4.38 1109.64,4.38 1109.64,4.38              1107.58,4.38 1106.89,5.06 1106.89,7.12              1106.89,7.12 1106.89,50.00 1106.89,50.00              1106.89,50.00 1121.69,50.00 1121.69,50.00              1132.92,50.00 1136.62,45.61 1136.62,32.28              1136.62,32.28 1138.00,32.28 1138.00,32.28              1138.00,32.28 1138.00,69.58 1138.00,69.58              1138.00,69.58 1136.62,69.58 1136.62,69.58              1136.62,55.89 1132.92,51.38 1121.69,51.38              1121.69,51.38 1106.89,51.38 1106.89,51.38              1106.89,51.38 1106.89,94.77 1106.89,94.77              1106.89,96.81 1107.58,97.50 1109.64,97.64              1109.64,97.64 1132.66,97.64 1132.66,97.64              1145.67,97.78 1153.34,88.19 1158.81,61.92              1158.81,61.92 1160.19,62.05 1160.19,62.05              1160.19,62.05 1155.12,98.33 1155.12,98.33 Z"
     style="stroke:none;stroke-opacity:1;fill:#ffffff;fill-opacity:1" />
  <path
     id="Path"
     fill="none"
     stroke="black"
     stroke-width="1"
     d="M 110.56,194.42            C 111.81,193.85 113.25,193.06 114.89,192.06              115.53,191.64 116.19,191.23 116.87,190.84              117.55,190.45 118.25,190.07 118.96,189.72              116.89,195.64 115.23,201.61 113.98,207.64              112.73,213.66 111.93,219.52 111.57,225.23              111.50,226.09 111.84,226.85 112.59,227.53              113.34,228.21 114.25,228.72 115.32,229.08              116.39,229.44 117.54,229.64 118.75,229.67              119.95,229.71 120.98,229.52 121.84,229.08              122.70,228.65 123.26,228.01 123.51,227.16              123.76,226.30 123.53,225.12 122.81,223.62              121.88,222.77 121.34,221.13 121.20,218.70              121.06,216.27 121.26,213.36 121.79,209.94              122.33,206.51 123.14,202.71 124.20,198.55              125.27,194.37 126.56,190.07 128.06,185.64              131.05,184.58 133.98,183.75 136.87,183.14              139.77,182.53 142.55,182.09 145.23,181.84              147.91,181.59 150.40,181.47 152.71,181.47              155.04,181.47 157.05,181.54 158.76,181.69              159.83,181.84 160.65,181.96 161.21,182.06              161.79,182.17 162.07,182.40 162.07,182.75              162.07,182.90 162.00,183.11 161.87,183.39              161.87,184.39 162.40,184.89 163.46,184.89              164.18,184.89 165.06,184.59 166.09,183.98              167.13,183.38 168.09,182.65 168.98,181.80              169.88,180.95 170.64,180.04 171.28,179.08              171.92,178.11 172.25,177.23 172.25,176.44              172.25,175.38 171.57,174.54 170.21,173.94              168.86,173.32 166.47,173.02 163.04,173.02              157.20,173.02 151.53,173.70 146.03,175.05              140.54,176.40 135.26,177.90 130.20,179.55              132.41,173.70 134.83,168.09 137.46,162.75              140.11,157.40 142.79,152.83 145.50,149.05              147.07,148.20 147.87,147.41 147.90,146.70              147.94,145.98 147.59,145.48 146.84,145.20              146.09,144.91 145.14,144.93 144.00,145.25              142.86,145.57 141.86,146.38 141.00,147.66              137.50,151.87 134.08,156.97 130.73,162.97              127.38,168.96 124.34,175.45 121.64,182.44              119.49,183.15 117.42,183.77 115.42,184.31              113.43,184.84 111.50,185.29 109.65,185.64              109.08,185.79 108.64,185.65 108.36,185.22              108.07,184.79 107.75,184.58 107.40,184.58              106.90,184.58 106.31,184.83 105.64,185.33              104.96,185.83 104.30,186.45 103.65,187.20              103.02,187.95 102.48,188.78 102.06,189.72              101.63,190.65 101.42,191.50 101.42,192.28              101.42,193.14 101.72,193.87 102.32,194.47              102.93,195.07 104.05,195.41 105.70,195.48              107.69,195.35 109.31,195.00 110.56,194.42 Z            M 93.59,167.72            C 92.95,164.69 93.49,161.82 95.20,159.11              96.92,156.40 99.57,153.84 103.17,151.41              106.77,148.98 110.94,146.82 115.68,144.94              120.43,143.04 125.52,141.40 130.93,140.02              136.36,138.62 141.71,137.59 147.00,136.91              152.28,136.23 157.30,135.89 162.07,135.89              166.86,135.89 170.94,136.34 174.32,137.23              177.72,138.12 180.23,139.48 181.87,141.30              183.52,143.11 183.88,145.45 182.95,148.30              181.45,149.52 180.46,150.77 180.00,152.05              179.54,153.33 179.43,154.53 179.68,155.64              179.93,156.75 180.46,157.67 181.28,158.42              182.10,159.16 183.03,159.61 184.06,159.75              185.10,159.90 186.15,159.67 187.21,159.06              188.29,158.45 189.25,157.32 190.12,155.69              192.75,150.55 193.91,146.29 193.59,142.91              193.27,139.51 192.00,136.80 189.79,134.77              187.58,132.73 184.64,131.28 180.96,130.39              177.29,129.50 173.42,128.96 169.36,128.78              165.29,128.59 161.26,128.68 157.26,129.05              153.27,129.40 149.81,129.79 146.89,130.22              143.82,130.72 140.45,131.43 136.78,132.36              133.10,133.29 129.35,134.43 125.53,135.78              121.71,137.14 117.93,138.71 114.18,140.50              110.44,142.28 106.95,144.28 103.70,146.48              100.46,148.70 97.57,151.09 95.04,153.66              92.51,156.22 90.61,159.00 89.32,162.00              88.47,164.00 88.00,166.00 87.93,168.00              87.86,169.99 88.14,171.90 88.78,173.72              89.42,175.53 90.35,177.23 91.56,178.80              92.78,180.37 94.21,181.69 95.86,182.75              96.42,183.12 97.04,183.12 97.71,182.77              98.39,182.40 98.98,181.88 99.48,181.20              99.98,180.53 100.32,179.80 100.50,179.02              100.68,178.23 100.59,177.58 100.23,177.08              96.45,173.87 94.23,170.75 93.59,167.72 Z            M 199.96,187.05            C 199.18,189.61 198.50,192.17 197.93,194.73              197.43,195.73 196.96,196.63 196.54,197.42              196.54,197.42 195.46,199.23 195.46,199.23              194.61,200.81 193.34,202.45 191.66,204.16              189.98,205.87 188.29,207.09 186.59,207.84              184.88,208.59 183.36,208.56 182.04,207.75              180.71,206.93 179.98,204.80 179.84,201.38              179.70,196.81 180.47,192.61 182.15,188.75              183.82,184.90 185.77,181.04 187.98,177.19              189.05,176.55 189.46,175.97 189.21,175.44              188.96,174.90 188.42,174.54 187.60,174.36              186.78,174.18 185.85,174.26 184.82,174.58              183.79,174.89 182.95,175.55 182.30,176.55              179.59,181.05 177.33,185.24 175.51,189.12              173.70,193.01 172.29,197.17 171.29,201.59              171.00,202.80 170.81,204.45 170.74,206.52              170.68,208.58 170.75,210.65 170.96,212.72              171.18,214.78 171.55,216.61 172.09,218.22              172.62,219.83 173.42,220.78 174.49,221.06              176.06,221.49 177.84,221.22 179.84,220.25              181.84,219.29 183.76,218.05 185.62,216.52              187.47,214.98 189.18,213.34 190.76,211.59              192.33,209.84 193.47,208.37 194.18,207.16              194.18,207.16 196.21,203.73 196.21,203.73              195.86,205.80 195.64,207.79 195.57,209.72              195.50,211.65 196.07,213.50 197.29,215.28              197.79,216.21 198.43,216.88 199.21,217.31              199.99,217.74 200.81,217.97 201.66,218.00              202.53,218.04 203.42,217.94 204.35,217.69              205.28,217.44 206.17,217.10 207.02,216.67              208.59,215.89 210.25,214.75 211.99,213.25              213.74,211.75 215.42,210.07 217.02,208.22              218.62,206.37 220.09,204.45 221.41,202.45              222.73,200.45 223.75,198.59 224.46,196.88              224.81,196.09 224.95,195.54 224.88,195.22              224.82,194.90 224.66,194.76 224.41,194.80              224.16,194.83 223.84,195.03 223.45,195.39              223.05,195.75 222.71,196.17 222.43,196.67              221.43,198.45 220.09,200.40 218.41,202.50              216.73,204.61 215.04,206.36 213.34,207.75              211.62,209.14 210.02,209.87 208.52,209.94              207.02,210.01 205.95,208.87 205.30,206.52              204.88,205.02 204.71,202.93 204.82,200.25              204.93,197.57 205.17,194.76 205.52,191.80              205.88,188.84 206.27,186.02 206.70,183.34              207.12,180.67 207.45,178.58 207.66,177.08              207.73,176.09 207.54,175.59 207.07,175.59              206.61,175.59 206.07,175.81 205.46,176.23              204.86,176.66 204.27,177.20 203.70,177.84              203.13,178.48 202.78,178.98 202.63,179.33              201.63,181.90 200.74,184.48 199.96,187.05 Z            M 239.38,174.73            C 239.32,174.02 238.77,173.71 237.73,173.83              236.70,173.93 235.45,174.45 233.98,175.38              232.52,176.30 231.29,177.62 230.29,179.33              229.36,180.98 228.26,183.21 226.98,186.03              225.70,188.84 224.48,191.91 223.34,195.23              222.20,198.55 221.23,201.95 220.45,205.45              219.66,208.95 219.34,212.18 219.49,215.17              219.06,216.04 219.42,216.57 220.55,216.78              221.70,217.00 223.00,216.88 224.46,216.41              225.93,215.95 227.25,215.13 228.43,213.95              229.61,212.78 230.09,211.19 229.87,209.19              229.87,209.19 230.29,204.80 230.29,204.80              230.93,203.59 231.82,202.07 232.96,200.25              234.11,198.43 235.37,196.56 236.76,194.64              238.15,192.71 239.62,190.90 241.15,189.19              242.69,187.47 244.23,186.13 245.76,185.17              247.29,184.20 248.71,183.79 250.04,183.94              251.36,184.07 252.52,185.00 253.51,186.72              253.65,188.43 254.12,189.30 254.90,189.34              255.69,189.38 256.53,188.95 257.41,188.06              258.31,187.17 259.16,185.93 259.98,184.36              260.80,182.79 261.37,181.22 261.70,179.66              262.02,178.09 261.98,176.67 261.59,175.42              261.20,174.17 260.26,173.41 258.76,173.12              256.90,172.77 254.69,173.36 252.12,174.89              249.55,176.42 246.98,178.40 244.41,180.83              241.85,183.26 239.46,185.82 237.24,188.53              235.03,191.24 233.29,193.59 232.01,195.59              232.29,194.24 232.66,192.71 233.12,191.00              233.59,189.28 234.07,187.59 234.57,185.91              235.07,184.23 235.52,182.68 235.91,181.27              236.31,179.84 236.57,178.80 236.71,178.16              238.56,176.59 239.45,175.45 239.38,174.73 Z            M 265.93,185.70            C 264.64,188.87 263.52,192.03 262.55,195.17              261.59,198.31 260.81,201.36 260.21,204.31              259.60,207.27 259.26,209.93 259.19,212.28              259.12,214.13 259.21,215.44 259.46,216.19              259.71,216.94 260.22,217.31 261.00,217.31              262.43,217.31 263.80,216.81 265.13,215.81              266.45,214.82 267.95,213.24 269.61,211.06              271.29,208.89 273.25,206.07 275.50,202.61              277.75,199.15 280.52,194.92 283.80,189.92              283.73,190.50 283.60,191.30 283.43,192.34              283.25,193.38 283.09,194.48 282.94,195.66              282.79,196.84 282.65,197.96 282.50,199.03              282.37,200.09 282.30,200.88 282.30,201.38              282.30,202.45 282.34,203.91 282.41,205.77              282.48,207.62 282.75,209.42 283.21,211.17              283.68,212.91 284.44,214.44 285.50,215.77              286.57,217.09 288.11,217.75 290.11,217.75              292.46,217.82 294.79,217.11 297.07,215.61              299.35,214.11 301.52,212.31 303.58,210.20              305.65,208.10 307.58,205.91 309.36,203.62              311.15,201.34 312.69,199.45 313.97,197.95              314.40,197.45 314.66,197.01 314.77,196.62              314.88,196.23 314.94,195.92 314.94,195.70              314.94,195.28 314.62,194.99 313.97,194.84              313.40,194.77 312.82,194.98 312.25,195.48              311.69,195.98 310.98,196.72 310.11,197.69              309.26,198.65 308.24,199.77 307.07,201.06              305.89,202.34 304.48,203.77 302.85,205.33              300.57,207.48 298.69,208.51 297.22,208.44              295.76,208.37 294.60,207.73 293.74,206.52              292.88,205.30 292.29,203.73 291.97,201.80              291.66,199.87 291.54,198.09 291.61,196.45              291.68,193.03 292.32,189.53 293.54,185.97              294.74,182.40 296.27,179.15 298.13,176.23              298.35,175.31 298.46,174.59 298.46,174.09              298.53,172.67 297.99,171.95 296.85,171.95              295.42,171.95 293.98,172.44 292.52,173.41              291.06,174.37 289.65,175.57 288.29,177.03              286.93,178.49 285.63,180.04 284.38,181.69              283.14,183.32 282.02,184.79 281.02,186.08              279.09,188.64 277.32,191.16 275.72,193.62              274.12,196.09 272.32,198.56 270.32,201.05              270.82,198.91 271.40,196.62 272.08,194.16              272.76,191.69 273.40,189.31 274.00,187.03              274.61,184.75 275.12,182.67 275.55,180.78              275.99,178.89 276.27,177.44 276.41,176.44              278.19,175.16 279.08,174.20 279.08,173.55              279.15,172.91 278.59,172.59 277.38,172.59              276.23,172.59 274.87,172.95 273.30,173.67              271.74,174.38 270.60,175.41 269.89,176.77              268.53,179.55 267.21,182.53 265.93,185.70 Z            M 324.67,163.50            C 323.96,164.78 323.54,165.75 323.41,166.39              323.26,167.17 323.49,167.87 324.09,168.47              324.70,169.07 325.36,169.38 326.08,169.38              326.72,169.38 327.60,169.18 328.70,168.80              329.80,168.40 330.91,167.92 332.02,167.34              333.12,166.77 334.08,166.13 334.91,165.42              335.73,164.71 336.21,164.04 336.34,163.39              336.41,163.11 336.25,163.02 335.86,163.12              335.47,163.23 335.07,163.37 334.64,163.55              334.21,163.73 333.88,163.78 333.62,163.72              333.38,163.65 333.46,163.21 333.89,162.42              334.32,161.64 334.46,161.04 334.31,160.61              334.18,160.18 333.93,159.87 333.56,159.66              333.21,159.44 332.82,159.29 332.39,159.22              331.96,159.15 331.68,159.11 331.53,159.11              331.18,159.11 330.57,159.23 329.72,159.48              328.86,159.73 328.04,160.11 327.25,160.61              326.25,161.25 325.39,162.21 324.67,163.50 Z            M 313.66,191.27            C 312.45,194.87 311.63,198.40 311.20,201.86              310.77,205.32 310.88,208.40 311.52,211.11              312.16,213.82 313.55,215.53 315.70,216.25              317.98,217.03 320.30,217.08 322.66,216.41              325.01,215.73 327.30,214.61 329.55,213.05              331.80,211.48 333.95,209.60 336.02,207.42              338.09,205.25 339.98,203.05 341.70,200.84              342.84,199.42 343.55,198.20 343.83,197.20              344.12,196.20 344.14,195.53 343.89,195.17              343.64,194.82 343.18,194.77 342.50,195.02              341.82,195.26 341.09,195.88 340.31,196.88              339.59,197.73 338.61,198.93 337.36,200.47              336.12,202.00 334.71,203.38 333.14,204.59              331.57,205.80 329.89,206.68 328.11,207.22              326.33,207.75 324.55,207.45 322.77,206.30              321.12,205.23 320.17,203.73 319.92,201.80              319.67,199.87 319.76,197.80 320.19,195.59              320.61,193.39 321.24,191.20 322.06,189.02              322.88,186.84 323.58,184.96 324.16,183.39              325.44,182.46 326.04,181.52 325.97,180.56              325.89,179.61 325.45,178.95 324.62,178.59              323.81,178.23 322.76,178.28 321.47,178.75              320.19,179.21 318.98,180.33 317.84,182.11              316.27,184.61 314.88,187.66 313.66,191.27 Z            M 372.54,170.98            C 370.11,171.48 367.65,172.26 365.15,173.30              362.66,174.33 360.27,175.54 357.98,176.94              355.70,178.32 353.72,179.84 352.04,181.48              350.38,183.12 349.11,184.83 348.25,186.61              347.39,188.39 347.21,190.17 347.71,191.95              345.79,193.03 343.98,194.24 342.31,195.59              340.63,196.95 339.29,198.45 338.29,200.09              337.30,201.73 336.71,203.50 336.53,205.39              336.35,207.28 336.76,209.22 337.76,211.22              338.41,212.50 339.36,213.77 340.61,215.02              341.86,216.27 343.33,217.39 345.04,218.39              346.75,219.39 348.66,220.17 350.76,220.73              352.86,221.30 355.09,221.52 357.45,221.39              359.17,221.32 361.22,220.92 363.61,220.20              366.00,219.49 368.21,218.46 370.25,217.09              372.28,215.74 373.93,214.03 375.21,211.97              376.50,209.90 376.92,207.47 376.50,204.69              376.29,203.34 375.56,202.09 374.31,200.95              373.06,199.81 371.61,198.73 369.96,197.73              368.33,196.73 366.62,195.77 364.84,194.84              363.06,193.92 361.52,192.95 360.23,191.95              360.23,191.95 363.67,191.31 363.67,191.31              369.58,190.61 374.70,190.61 379.01,191.33              383.33,192.04 386.28,193.17 387.84,194.73              388.56,195.45 389.09,196.03 389.45,196.45              389.80,196.88 390.05,197.23 390.20,197.52              390.20,197.81 390.32,198.04 390.57,198.22              390.82,198.40 391.07,198.47 391.32,198.44              391.57,198.40 391.82,198.23 392.07,197.95              392.32,197.66 392.48,197.16 392.56,196.45              392.62,195.81 392.36,195.13 391.79,194.42              391.23,193.70 390.50,193.03 389.61,192.39              388.72,191.75 387.72,191.16 386.61,190.62              385.50,190.09 384.42,189.64 383.36,189.28              379.36,188.07 375.04,187.40 370.40,187.25              365.77,187.11 361.42,187.50 357.36,188.42              356.49,186.64 356.48,185.04 357.34,183.61              358.20,182.18 359.58,181.01 361.46,180.08              363.36,179.15 365.62,178.59 368.26,178.38              370.89,178.16 373.57,178.37 376.29,179.02              377.22,180.15 378.18,180.78 379.17,180.89              380.17,181.00 381.06,180.76 381.84,180.19              382.63,179.62 383.25,178.84 383.71,177.84              384.18,176.84 384.38,175.83 384.31,174.80              384.23,173.76 383.79,172.82 382.96,172.00              382.15,171.18 380.89,170.66 379.18,170.45              377.18,170.31 374.97,170.48 372.54,170.98 Z            M 343.01,205.28            C 342.94,203.96 343.17,202.71 343.70,201.53              344.24,200.36 345.04,199.27 346.11,198.27              347.18,197.27 348.43,196.38 349.86,195.59              350.71,196.38 351.92,197.29 353.50,198.33              355.07,199.36 356.67,200.43 358.31,201.53              359.95,202.64 361.52,203.76 363.01,204.91              364.51,206.04 365.64,207.17 366.39,208.28              367.14,209.39 367.36,210.45 367.07,211.48              366.79,212.52 365.72,213.43 363.87,214.22              362.23,214.93 360.45,215.30 358.53,215.33              356.60,215.37 354.72,215.14 352.90,214.64              351.09,214.14 349.41,213.45 347.87,212.56              346.34,211.67 345.22,210.62 344.51,209.41              343.58,207.98 343.08,206.61 343.01,205.28 Z            M 408.98,143.55            C 406.95,147.71 405.00,152.10 403.15,156.70              401.29,161.31 399.56,166.07 397.96,171.00              396.36,175.92 394.93,180.82 393.68,185.70              392.43,190.59 391.38,195.39 390.52,200.09              389.67,204.80 389.03,209.26 388.60,213.47              388.45,214.82 388.47,215.88 388.65,216.62              388.84,217.38 389.12,217.93 389.51,218.28              389.90,218.63 390.33,218.86 390.79,218.97              391.26,219.08 391.74,219.18 392.24,219.25              392.95,219.03 393.64,218.52 394.32,217.73              395.00,216.95 395.66,216.05 396.30,215.02              396.95,213.98 397.57,212.90 398.18,211.77              398.78,210.62 399.41,209.55 400.05,208.55              400.98,207.12 402.14,205.41 403.52,203.41              404.92,201.41 406.38,199.38 407.91,197.31              409.45,195.24 410.92,193.28 412.35,191.42              413.78,189.57 415.03,188.11 416.10,187.03              415.53,188.75 415.03,190.52 414.60,192.34              414.17,194.16 413.81,195.90 413.52,197.58              413.24,199.26 413.03,200.81 412.88,202.23              412.75,203.66 412.68,204.91 412.68,205.97              412.68,209.54 413.30,212.08 414.55,213.58              415.80,215.07 417.67,215.81 420.16,215.81              422.52,215.81 424.70,215.21 426.70,214.00              428.70,212.79 430.56,211.26 432.30,209.41              434.05,207.54 435.68,205.49 437.18,203.25              438.68,201.00 440.07,198.84 441.35,196.77              441.70,195.98 441.79,195.40 441.62,195.02              441.44,194.62 441.10,194.45 440.60,194.48              440.10,194.52 439.51,194.77 438.84,195.23              438.16,195.70 437.57,196.39 437.07,197.31              436.14,198.59 435.21,199.81 434.29,200.95              433.36,202.09 432.38,203.07 431.35,203.89              430.32,204.71 429.21,205.32 428.04,205.72              426.86,206.11 425.62,206.16 424.34,205.88              422.41,205.44 421.32,204.33 421.07,202.55              420.82,200.77 420.96,198.73 421.49,196.45              422.03,194.17 422.77,191.88 423.70,189.56              424.62,187.24 425.34,185.33 425.84,183.83              426.19,182.61 426.65,181.23 427.23,179.70              427.80,178.17 428.12,176.66 428.20,175.16              428.20,174.59 427.98,173.95 427.55,173.23              427.12,172.52 426.55,172.20 425.84,172.27              425.20,172.27 424.45,172.55 423.59,173.12              422.73,173.70 421.84,174.36 420.91,175.11              419.98,175.86 419.09,176.68 418.24,177.58              417.39,178.46 416.67,179.23 416.10,179.86              414.60,181.73 413.24,183.37 412.02,184.80              410.81,186.21 409.62,187.64 408.45,189.06              407.27,190.49 406.05,192.01 404.80,193.62              403.56,195.23 402.16,197.10 400.59,199.23              400.94,187.11 403.20,175.57 407.37,164.62              411.54,153.67 417.38,143.48 424.88,134.08              426.59,133.51 427.25,132.76 426.85,131.83              426.46,130.90 425.59,130.17 424.23,129.64              422.87,129.10 421.30,128.95 419.52,129.20              417.74,129.45 416.31,130.43 415.24,132.14              413.11,135.57 411.02,139.37 408.98,143.55 Z            M 452.77,163.50            C 452.06,164.78 451.64,165.75 451.51,166.39              451.36,167.17 451.59,167.87 452.20,168.47              452.80,169.07 453.46,169.38 454.18,169.38              454.82,169.38 455.70,169.18 456.80,168.80              457.91,168.40 459.01,167.92 460.12,167.34              461.22,166.77 462.18,166.13 463.01,165.42              463.83,164.71 464.31,164.04 464.45,163.39              464.52,163.11 464.36,163.02 463.96,163.12              463.57,163.23 463.17,163.37 462.74,163.55              462.31,163.73 461.98,163.78 461.73,163.72              461.48,163.65 461.56,163.21 461.99,162.42              462.42,161.64 462.56,161.04 462.41,160.61              462.28,160.18 462.03,159.87 461.66,159.66              461.31,159.44 460.92,159.29 460.49,159.22              460.06,159.15 459.78,159.11 459.63,159.11              459.28,159.11 458.67,159.23 457.82,159.48              456.96,159.73 456.14,160.11 455.35,160.61              454.35,161.25 453.49,162.21 452.77,163.50 Z            M 441.76,191.27            C 440.55,194.87 439.73,198.40 439.30,201.86              438.88,205.32 438.98,208.40 439.62,211.11              440.26,213.82 441.66,215.53 443.80,216.25              446.09,217.03 448.40,217.08 450.76,216.41              453.11,215.73 455.41,214.61 457.65,213.05              459.90,211.48 462.05,209.60 464.12,207.42              466.19,205.25 468.09,203.05 469.80,200.84              470.94,199.42 471.65,198.20 471.93,197.20              472.22,196.20 472.24,195.53 471.99,195.17              471.74,194.82 471.28,194.77 470.60,195.02              469.92,195.26 469.20,195.88 468.41,196.88              467.70,197.73 466.71,198.93 465.46,200.47              464.22,202.00 462.81,203.38 461.24,204.59              459.67,205.80 457.99,206.68 456.21,207.22              454.43,207.75 452.65,207.45 450.87,206.30              449.22,205.23 448.27,203.73 448.02,201.80              447.77,199.87 447.86,197.80 448.29,195.59              448.71,193.39 449.34,191.20 450.16,189.02              450.98,186.84 451.68,184.96 452.26,183.39              453.54,182.46 454.14,181.52 454.07,180.56              454.00,179.61 453.55,178.95 452.73,178.59              451.91,178.23 450.86,178.28 449.57,178.75              448.29,179.21 447.08,180.33 445.95,182.11              444.37,184.61 442.98,187.66 441.76,191.27 Z            M 474.43,185.70            C 473.14,188.87 472.02,192.03 471.05,195.17              470.09,198.31 469.31,201.36 468.71,204.31              468.10,207.27 467.76,209.93 467.69,212.28              467.62,214.13 467.71,215.44 467.96,216.19              468.21,216.94 468.72,217.31 469.50,217.31              470.93,217.31 472.30,216.81 473.63,215.81              474.95,214.82 476.45,213.24 478.11,211.06              479.79,208.89 481.75,206.07 484.00,202.61              486.25,199.15 489.02,194.92 492.30,189.92              492.23,190.50 492.10,191.30 491.93,192.34              491.75,193.38 491.59,194.48 491.44,195.66              491.29,196.84 491.15,197.96 491.00,199.03              490.87,200.09 490.80,200.88 490.80,201.38              490.80,202.45 490.84,203.91 490.91,205.77              490.98,207.62 491.25,209.42 491.71,211.17              492.18,212.91 492.94,214.44 494.00,215.77              495.07,217.09 496.61,217.75 498.61,217.75              500.96,217.82 503.29,217.11 505.57,215.61              507.85,214.11 510.02,212.31 512.08,210.20              514.15,208.10 516.08,205.91 517.86,203.62              519.65,201.34 521.19,199.45 522.47,197.95              522.90,197.45 523.16,197.01 523.27,196.62              523.38,196.23 523.44,195.92 523.44,195.70              523.44,195.28 523.12,194.99 522.47,194.84              521.90,194.77 521.32,194.98 520.75,195.48              520.19,195.98 519.48,196.72 518.61,197.69              517.76,198.65 516.74,199.77 515.57,201.06              514.39,202.34 512.98,203.77 511.35,205.33              509.07,207.48 507.19,208.51 505.72,208.44              504.26,208.37 503.10,207.73 502.24,206.52              501.38,205.30 500.79,203.73 500.47,201.80              500.16,199.87 500.04,198.09 500.11,196.45              500.18,193.03 500.82,189.53 502.04,185.97              503.24,182.40 504.77,179.15 506.63,176.23              506.85,175.31 506.96,174.59 506.96,174.09              507.03,172.67 506.49,171.95 505.35,171.95              503.92,171.95 502.48,172.44 501.02,173.41              499.56,174.37 498.15,175.57 496.79,177.03              495.43,178.49 494.13,180.04 492.88,181.69              491.64,183.32 490.52,184.79 489.52,186.08              487.59,188.64 485.82,191.16 484.22,193.62              482.62,196.09 480.82,198.56 478.82,201.05              479.32,198.91 479.90,196.62 480.58,194.16              481.26,191.69 481.90,189.31 482.50,187.03              483.11,184.75 483.62,182.67 484.05,180.78              484.49,178.89 484.77,177.44 484.91,176.44              486.69,175.16 487.58,174.20 487.58,173.55              487.65,172.91 487.09,172.59 485.88,172.59              484.73,172.59 483.37,172.95 481.80,173.67              480.24,174.38 479.10,175.41 478.39,176.77              477.03,179.55 475.71,182.53 474.43,185.70 Z            M 550.20,189.72            C 549.27,191.36 548.22,192.94 547.05,194.47              545.87,196.00 544.71,197.38 543.56,198.59              542.43,199.80 541.32,200.86 540.25,201.75              539.18,202.65 538.29,203.27 537.58,203.62              534.65,205.26 532.17,205.98 530.14,205.77              528.11,205.55 526.64,204.80 525.75,203.52              524.85,202.23 524.60,200.56 525.00,198.48              525.39,196.41 526.55,194.31 528.48,192.17              530.27,190.04 532.06,188.37 533.88,187.16              535.70,185.94 537.41,185.01 539.02,184.36              540.62,183.71 542.11,183.29 543.50,183.08              544.89,182.86 546.13,182.68 547.20,182.55              548.05,182.40 548.66,181.85 549.02,180.89              549.38,179.92 549.49,178.91 549.34,177.84              549.20,176.77 548.84,175.81 548.27,174.95              547.70,174.09 546.92,173.73 545.92,173.88              543.64,174.80 541.11,176.14 538.33,177.89              535.55,179.64 532.82,181.64 530.14,183.89              527.46,186.13 524.98,188.59 522.70,191.27              520.42,193.95 518.55,196.70 517.08,199.52              515.62,202.33 514.74,205.18 514.45,208.06              514.17,210.95 514.74,213.75 516.17,216.47              516.89,217.88 517.98,218.79 519.44,219.19              520.89,219.58 522.55,219.57 524.41,219.14              526.26,218.71 528.24,217.93 530.34,216.78              532.45,215.63 534.55,214.24 536.66,212.61              538.76,210.96 540.79,209.09 542.75,206.98              544.72,204.88 546.45,202.65 547.95,200.30              547.95,200.30 546.88,203.94 546.88,203.94              544.59,211.07 541.69,217.97 538.16,224.64              534.62,231.32 530.40,237.08 525.48,241.92              524.41,242.99 523.23,244.10 521.95,245.23              520.67,246.38 519.32,247.39 517.89,248.28              516.46,249.18 514.98,249.88 513.44,250.38              511.91,250.88 510.36,251.05 508.80,250.92              506.15,250.77 503.85,249.80 501.89,248.02              499.93,246.23 498.77,243.74 498.41,240.53              498.70,239.60 498.62,238.82 498.16,238.17              497.69,237.54 497.03,237.07 496.17,236.78              495.31,236.50 494.38,236.38 493.39,236.41              492.39,236.45 491.46,236.64 490.61,237.00              489.75,237.36 489.05,237.90 488.52,238.61              487.98,239.33 487.82,240.18 488.03,241.17              489.61,246.24 491.64,250.13 494.14,252.84              496.63,255.55 500.20,257.16 504.83,257.66              508.90,258.16 512.95,257.48 516.97,255.62              521.00,253.77 524.66,251.27 527.94,248.14              533.14,242.64 537.64,237.11 541.42,231.55              545.20,225.98 548.43,220.20 551.11,214.20              553.79,208.21 555.98,201.89 557.69,195.22              559.39,188.55 560.79,181.33 561.86,173.55              562.15,172.62 561.99,172.03 561.38,171.78              560.77,171.53 559.97,171.52 558.97,171.73              557.97,171.95 556.89,172.33 555.75,172.86              554.61,173.39 553.63,174.00 552.81,174.67              552.00,175.35 551.45,176.03 551.16,176.72              550.88,177.40 551.12,177.95 551.91,178.38              551.91,178.38 550.20,189.72 550.20,189.72 Z            M 594.05,170.98            C 591.62,171.48 589.16,172.26 586.66,173.30              584.16,174.33 581.77,175.54 579.48,176.94              577.20,178.32 575.22,179.84 573.55,181.48              571.88,183.12 570.61,184.83 569.75,186.61              568.89,188.39 568.72,190.17 569.22,191.95              567.29,193.03 565.49,194.24 563.81,195.59              562.13,196.95 560.80,198.45 559.80,200.09              558.80,201.73 558.22,203.50 558.03,205.39              557.85,207.28 558.27,209.22 559.27,211.22              559.91,212.50 560.86,213.77 562.11,215.02              563.36,216.27 564.84,217.39 566.55,218.39              568.25,219.39 570.16,220.17 572.27,220.73              574.37,221.30 576.60,221.52 578.95,221.39              580.67,221.32 582.72,220.92 585.11,220.20              587.50,219.49 589.72,218.46 591.75,217.09              593.78,215.74 595.44,214.03 596.72,211.97              598.00,209.90 598.43,207.47 598.00,204.69              597.79,203.34 597.06,202.09 595.81,200.95              594.56,199.81 593.11,198.73 591.47,197.73              589.83,196.73 588.12,195.77 586.34,194.84              584.56,193.92 583.02,192.95 581.73,191.95              581.73,191.95 585.17,191.31 585.17,191.31              591.09,190.61 596.20,190.61 600.52,191.33              604.84,192.04 607.78,193.17 609.34,194.73              610.06,195.45 610.60,196.03 610.95,196.45              611.30,196.88 611.55,197.23 611.70,197.52              611.70,197.81 611.83,198.04 612.08,198.22              612.33,198.40 612.58,198.47 612.83,198.44              613.08,198.40 613.33,198.23 613.58,197.95              613.83,197.66 613.99,197.16 614.06,196.45              614.12,195.81 613.87,195.13 613.30,194.42              612.73,193.70 612.00,193.03 611.11,192.39              610.22,191.75 609.22,191.16 608.11,190.62              607.00,190.09 605.92,189.64 604.86,189.28              600.86,188.07 596.54,187.40 591.91,187.25              587.27,187.11 582.92,187.50 578.86,188.42              577.99,186.64 577.99,185.04 578.84,183.61              579.71,182.18 581.08,181.01 582.97,180.08              584.86,179.15 587.13,178.59 589.77,178.38              592.40,178.16 595.08,178.37 597.80,179.02              598.72,180.15 599.68,180.78 600.67,180.89              601.67,181.00 602.56,180.76 603.34,180.19              604.13,179.62 604.76,178.84 605.22,177.84              605.69,176.84 605.88,175.83 605.81,174.80              605.74,173.76 605.29,172.82 604.47,172.00              603.66,171.18 602.39,170.66 600.69,170.45              598.69,170.31 596.47,170.48 594.05,170.98 Z            M 564.52,205.28            C 564.44,203.96 564.67,202.71 565.20,201.53              565.74,200.36 566.55,199.27 567.61,198.27              568.68,197.27 569.93,196.38 571.36,195.59              572.21,196.38 573.43,197.29 575.00,198.33              576.57,199.36 578.18,200.43 579.81,201.53              581.46,202.64 583.02,203.76 584.52,204.91              586.02,206.04 587.14,207.17 587.89,208.28              588.64,209.39 588.87,210.45 588.58,211.48              588.30,212.52 587.23,213.43 585.38,214.22              583.74,214.93 581.96,215.30 580.03,215.33              578.10,215.37 576.23,215.14 574.41,214.64              572.59,214.14 570.91,213.45 569.38,212.56              567.84,211.67 566.72,210.62 566.02,209.41              565.09,207.98 564.59,206.61 564.52,205.28 Z            M 705.62,205.12            C 703.41,204.55 701.16,203.59 698.87,202.23              702.87,199.45 706.08,196.48 708.51,193.30              710.93,190.12 712.15,186.93 712.15,183.72              712.07,182.09 711.62,180.86 710.80,180.03              709.98,179.21 709.00,178.70 707.85,178.48              706.71,178.27 705.56,178.28 704.38,178.53              703.20,178.78 702.24,179.16 701.49,179.66              700.74,180.16 700.33,180.70 700.26,181.27              700.20,181.83 700.70,182.32 701.76,182.75              702.55,184.32 702.92,185.86 702.88,187.36              702.85,188.86 702.48,190.31 701.76,191.70              701.05,193.09 700.07,194.41 698.82,195.66              697.57,196.90 696.12,198.05 694.49,199.12              690.64,196.14 687.03,192.54 683.68,188.33              680.32,184.11 677.58,179.76 675.45,175.27              678.93,172.98 682.45,170.53 685.98,167.89              689.51,165.25 692.62,162.53 695.34,159.75              698.05,156.97 700.20,154.12 701.76,151.19              703.33,148.26 703.94,145.38 703.59,142.53              703.22,139.81 701.93,137.90 699.73,136.80              697.52,135.70 694.86,135.27 691.76,135.52              688.65,135.77 685.35,136.59 681.85,137.98              678.36,139.37 675.19,141.15 672.34,143.33              669.48,145.51 667.14,148.01 665.32,150.83              663.51,153.64 662.78,156.58 663.13,159.64              663.42,162.14 663.87,164.61 664.48,167.03              665.08,169.46 665.84,171.81 666.77,174.09              665.34,174.95 663.95,175.79 662.60,176.61              661.25,177.42 659.93,178.26 658.65,179.12              656.86,180.34 655.07,181.56 653.29,182.81              651.51,184.06 649.81,185.40 648.21,186.83              646.61,188.26 645.12,189.81 643.77,191.48              642.42,193.15 641.31,194.95 640.45,196.88              639.23,199.45 638.68,201.68 638.79,203.58              638.90,205.46 639.45,207.09 640.45,208.44              641.45,209.79 642.76,210.93 644.40,211.86              646.04,212.79 647.79,213.50 649.65,214.00              652.65,214.85 655.89,215.30 659.38,215.33              662.88,215.37 666.46,215.03 670.13,214.31              673.81,213.61 677.46,212.59 681.10,211.28              684.75,209.96 688.25,208.44 691.60,206.72              693.45,208.37 695.31,209.94 697.16,211.44              699.02,212.93 700.87,214.35 702.73,215.72              704.43,216.28 706.07,216.36 707.65,215.97              709.22,215.58 710.62,214.96 711.87,214.11              713.12,213.26 714.13,212.28 714.91,211.17              715.70,210.06 716.17,209.02 716.30,208.06              716.45,207.09 716.18,206.34 715.51,205.81              714.83,205.28 713.67,205.16 712.04,205.44              709.96,205.79 707.82,205.69 705.62,205.12 Z            M 677.37,191.80            C 680.50,195.68 683.82,199.34 687.32,202.77              683.96,204.12 680.40,205.17 676.62,205.92              672.84,206.67 669.20,207.01 665.70,206.94              662.20,206.87 659.00,206.37 656.07,205.44              653.14,204.51 650.90,203.05 649.34,201.05              648.26,199.70 647.74,198.43 647.77,197.25              647.81,196.07 648.23,194.95 649.01,193.89              649.80,192.82 650.81,191.77 652.05,190.73              653.30,189.70 654.64,188.64 656.07,187.58              657.35,186.58 659.15,185.40 661.48,184.05              663.80,182.68 666.39,181.11 669.24,179.33              671.52,183.76 674.23,187.91 677.37,191.80 Z            M 683.84,163.08            C 680.38,165.50 676.83,167.84 673.20,170.12              673.05,169.56 672.89,169.03 672.71,168.53              672.53,168.03 672.37,167.50 672.23,166.92              671.80,165.21 671.42,163.38 671.10,161.42              670.79,159.45 670.65,157.54 670.68,155.69              670.71,153.84 671.05,152.07 671.70,150.39              672.34,148.71 673.45,147.30 675.01,146.16              676.36,145.09 677.95,144.39 679.77,144.03              681.59,143.67 683.41,143.56 685.23,143.70              687.05,143.85 688.74,144.26 690.30,144.94              691.88,145.62 693.09,146.45 693.95,147.45              694.81,148.45 695.24,149.59 695.24,150.88              695.24,152.16 694.56,153.51 693.20,154.94              690.41,157.94 687.29,160.65 683.84,163.08 Z            M 861.00,181.53            C 859.44,186.70 857.16,191.39 854.16,195.59              851.16,199.80 847.57,203.53 843.36,206.78              839.15,210.02 834.58,212.68 829.66,214.75              824.74,216.82 819.59,218.30 814.20,219.19              808.82,220.08 803.45,220.28 798.09,219.78              795.81,219.56 793.55,219.19 791.30,218.66              789.05,218.12 786.99,217.29 785.09,216.14              783.21,214.99 781.55,213.48 780.12,211.59              778.70,209.70 777.66,207.29 777.02,204.38              777.30,203.02 777.19,202.04 776.69,201.44              776.20,200.82 775.54,200.52 774.72,200.52              773.89,200.52 772.98,200.79 771.98,201.33              770.98,201.86 770.12,202.59 769.41,203.52              768.70,204.45 768.23,205.50 768.02,206.67              767.80,207.85 768.06,209.12 768.78,210.47              771.13,214.25 774.04,217.41 777.50,219.94              780.96,222.47 784.77,224.41 788.94,225.77              793.11,227.12 797.54,227.85 802.20,227.95              806.88,228.07 811.61,227.62 816.39,226.62              821.38,225.55 826.18,223.91 830.78,221.70              835.38,219.49 839.66,216.86 843.62,213.80              847.58,210.73 851.20,207.26 854.48,203.41              857.77,199.55 860.62,195.45 863.05,191.11              865.47,186.76 867.40,182.23 868.83,177.52              870.25,172.81 871.11,168.03 871.39,163.17              871.74,156.90 870.66,151.70 868.12,147.56              865.59,143.42 862.22,140.08 858.02,137.55              853.80,135.02 849.10,133.22 843.89,132.16              838.68,131.09 833.58,130.44 828.59,130.22              822.96,130.00 817.09,130.27 810.98,131.02              804.89,131.77 798.90,133.02 793.02,134.77              787.13,136.52 781.46,138.71 776.00,141.36              770.54,144.00 765.63,147.06 761.28,150.55              759.93,151.62 758.54,152.86 757.11,154.25              755.68,155.64 754.41,157.13 753.31,158.73              752.21,160.34 751.30,162.03 750.58,163.81              749.87,165.59 749.55,167.45 749.62,169.38              749.62,170.52 749.82,171.70 750.20,172.92              750.60,174.13 751.17,175.25 751.92,176.28              752.67,177.31 753.56,178.15 754.59,178.80              755.63,179.45 756.80,179.77 758.08,179.77              760.50,179.77 762.27,179.34 763.38,178.48              764.48,177.62 765.16,176.67 765.41,175.64              765.66,174.61 765.55,173.67 765.08,172.81              764.62,171.95 764.03,171.55 763.31,171.62              761.32,171.27 759.58,170.51 758.08,169.33              756.58,168.15 755.83,166.64 755.83,164.78              755.75,162.50 756.39,160.36 757.75,158.36              759.10,156.36 760.96,154.58 763.31,153.02              768.16,149.80 773.23,147.02 778.52,144.67              783.80,142.32 789.14,140.46 794.56,139.11              799.99,137.75 805.41,136.94 810.83,136.69              816.24,136.44 821.55,136.78 826.77,137.70              830.19,138.35 833.94,139.26 838.00,140.44              842.07,141.62 845.89,143.26 849.45,145.36              853.02,147.46 856.04,150.11 858.50,153.28              860.96,156.45 862.36,160.32 862.72,164.89              863.14,170.81 862.57,176.36 861.00,181.53 Z            M 805.95,166.28            C 804.71,170.27 803.14,174.23 801.25,178.16              799.36,182.09 797.30,185.73 795.05,189.08              792.80,192.42 790.71,195.02 788.78,196.88              787.35,196.59 786.38,196.79 785.84,197.47              785.31,198.15 785.10,199.02 785.20,200.09              785.30,201.16 785.68,202.26 786.31,203.41              786.96,204.55 787.74,205.43 788.67,206.03              789.60,206.64 790.63,206.84 791.78,206.62              792.93,206.41 794.07,205.48 795.20,203.83              797.91,198.91 800.27,194.56 802.27,190.78              804.27,187.00 806.12,183.20 807.83,179.39              809.55,175.57 811.17,171.45 812.70,167.03              814.23,162.61 815.89,157.29 817.67,151.08              817.74,149.73 817.44,148.84 816.77,148.41              816.09,147.98 815.25,147.88 814.25,148.09              813.25,148.30 812.20,148.73 811.09,149.38              809.99,150.01 809.04,150.73 808.25,151.52              807.47,152.30 806.99,153.09 806.81,153.88              806.63,154.66 806.97,155.26 807.83,155.69              807.83,158.75 807.20,162.28 805.95,166.28 Z            M 875.08,199.45            C 877.71,198.95 880.46,198.01 883.31,196.62              886.16,195.23 888.77,193.57 891.12,191.64              893.48,189.71 895.41,187.62 896.91,185.38              898.41,183.12 899.16,180.97 899.16,178.91              899.16,177.34 898.42,176.17 896.95,175.42              895.49,174.67 893.73,174.59 891.66,175.16              884.38,177.16 878.47,180.87 873.91,186.28              871.19,189.43 868.94,192.93 867.16,196.78              865.38,200.62 864.48,204.59 864.48,208.66              864.48,212.50 865.48,215.24 867.47,216.88              869.47,218.52 871.97,219.34 874.97,219.34              878.47,219.34 881.64,218.80 884.48,217.73              887.34,216.67 889.94,215.23 892.30,213.42              894.65,211.60 896.84,209.50 898.88,207.11              900.91,204.71 902.93,202.20 904.92,199.56              905.71,198.49 906.21,197.56 906.42,196.78              906.64,195.99 906.66,195.42 906.48,195.06              906.30,194.71 905.97,194.62 905.47,194.80              904.97,194.98 904.47,195.45 903.97,196.23              903.54,196.81 902.89,197.63 902.03,198.70              901.18,199.77 899.89,201.16 898.19,202.88              895.76,205.37 893.19,207.17 890.48,208.28              887.77,209.39 885.27,209.87 882.98,209.72              880.70,209.57 878.81,208.76 877.31,207.27              875.82,205.77 875.08,203.62 875.08,200.84              875.08,200.84 875.08,199.45 875.08,199.45 Z            M 883.05,192.39            C 880.72,193.32 878.32,193.82 875.83,193.89              876.40,191.82 877.22,189.89 878.28,188.11              879.35,186.33 880.82,184.94 882.67,183.94              883.67,183.37 884.70,183.03 885.77,182.92              886.84,182.81 887.71,182.93 888.39,183.30              889.08,183.65 889.45,184.26 889.52,185.11              889.59,185.96 889.20,187.03 888.34,188.31              887.13,190.11 885.37,191.46 883.05,192.39 Z            M 932.25,170.98            C 929.82,171.48 927.36,172.26 924.86,173.30              922.36,174.33 919.97,175.54 917.68,176.94              915.40,178.32 913.42,179.84 911.75,181.48              910.08,183.12 908.81,184.83 907.95,186.61              907.09,188.39 906.92,190.17 907.42,191.95              905.49,193.03 903.69,194.24 902.01,195.59              900.33,196.95 899.00,198.45 898.00,200.09              897.00,201.73 896.42,203.50 896.23,205.39              896.05,207.28 896.46,209.22 897.46,211.22              898.11,212.50 899.06,213.77 900.31,215.02              901.56,216.27 903.04,217.39 904.75,218.39              906.45,219.39 908.36,220.17 910.46,220.73              912.57,221.30 914.80,221.52 917.15,221.39              918.87,221.32 920.92,220.92 923.31,220.20              925.70,219.49 927.92,218.46 929.95,217.09              931.98,215.74 933.64,214.03 934.92,211.97              936.20,209.90 936.62,207.47 936.20,204.69              935.99,203.34 935.26,202.09 934.01,200.95              932.76,199.81 931.31,198.73 929.67,197.73              928.03,196.73 926.32,195.77 924.54,194.84              922.76,193.92 921.22,192.95 919.93,191.95              919.93,191.95 923.37,191.31 923.37,191.31              929.29,190.61 934.40,190.61 938.71,191.33              943.04,192.04 945.98,193.17 947.54,194.73              948.26,195.45 948.80,196.03 949.15,196.45              949.50,196.88 949.75,197.23 949.90,197.52              949.90,197.81 950.03,198.04 950.28,198.22              950.53,198.40 950.78,198.47 951.03,198.44              951.28,198.40 951.53,198.23 951.78,197.95              952.03,197.66 952.19,197.16 952.26,196.45              952.32,195.81 952.07,195.13 951.50,194.42              950.93,193.70 950.20,193.03 949.31,192.39              948.42,191.75 947.42,191.16 946.31,190.62              945.20,190.09 944.12,189.64 943.06,189.28              939.06,188.07 934.74,187.40 930.11,187.25              925.47,187.11 921.12,187.50 917.06,188.42              916.19,186.64 916.19,185.04 917.04,183.61              917.91,182.18 919.28,181.01 921.17,180.08              923.06,179.15 925.33,178.59 927.96,178.38              930.60,178.16 933.28,178.37 936.00,179.02              936.92,180.15 937.88,180.78 938.87,180.89              939.87,181.00 940.76,180.76 941.54,180.19              942.33,179.62 942.96,178.84 943.42,177.84              943.89,176.84 944.08,175.83 944.01,174.80              943.94,173.76 943.49,172.82 942.67,172.00              941.86,171.18 940.59,170.66 938.89,170.45              936.89,170.31 934.67,170.48 932.25,170.98 Z            M 902.71,205.28            C 902.64,203.96 902.87,202.71 903.40,201.53              903.94,200.36 904.75,199.27 905.81,198.27              906.88,197.27 908.13,196.38 909.56,195.59              910.41,196.38 911.62,197.29 913.20,198.33              914.77,199.36 916.38,200.43 918.01,201.53              919.66,202.64 921.22,203.76 922.71,204.91              924.21,206.04 925.34,207.17 926.09,208.28              926.84,209.39 927.07,210.45 926.78,211.48              926.50,212.52 925.43,213.43 923.57,214.22              921.94,214.93 920.16,215.30 918.23,215.33              916.30,215.37 914.43,215.14 912.61,214.64              910.79,214.14 909.11,213.45 907.57,212.56              906.04,211.67 904.92,210.62 904.21,209.41              903.29,207.98 902.79,206.61 902.71,205.28 Z            M 961.77,163.50            C 961.06,164.78 960.64,165.75 960.51,166.39              960.36,167.17 960.59,167.87 961.20,168.47              961.80,169.07 962.46,169.38 963.18,169.38              963.82,169.38 964.70,169.18 965.80,168.80              966.91,168.40 968.01,167.92 969.12,167.34              970.22,166.77 971.18,166.13 972.01,165.42              972.83,164.71 973.31,164.04 973.45,163.39              973.52,163.11 973.36,163.02 972.96,163.12              972.57,163.23 972.17,163.37 971.74,163.55              971.31,163.73 970.98,163.78 970.73,163.72              970.48,163.65 970.56,163.21 970.99,162.42              971.42,161.64 971.56,161.04 971.41,160.61              971.28,160.18 971.03,159.87 970.66,159.66              970.31,159.44 969.92,159.29 969.49,159.22              969.06,159.15 968.78,159.11 968.63,159.11              968.28,159.11 967.67,159.23 966.82,159.48              965.96,159.73 965.14,160.11 964.35,160.61              963.35,161.25 962.49,162.21 961.77,163.50 Z            M 950.76,191.27            C 949.55,194.87 948.73,198.40 948.30,201.86              947.88,205.32 947.98,208.40 948.62,211.11              949.26,213.82 950.66,215.53 952.80,216.25              955.09,217.03 957.40,217.08 959.76,216.41              962.11,215.73 964.41,214.61 966.65,213.05              968.90,211.48 971.05,209.60 973.12,207.42              975.19,205.25 977.09,203.05 978.80,200.84              979.94,199.42 980.65,198.20 980.93,197.20              981.22,196.20 981.24,195.53 980.99,195.17              980.74,194.82 980.28,194.77 979.60,195.02              978.92,195.26 978.20,195.88 977.41,196.88              976.70,197.73 975.71,198.93 974.46,200.47              973.22,202.00 971.81,203.38 970.24,204.59              968.67,205.80 966.99,206.68 965.21,207.22              963.43,207.75 961.65,207.45 959.87,206.30              958.22,205.23 957.27,203.73 957.02,201.80              956.77,199.87 956.86,197.80 957.29,195.59              957.71,193.39 958.34,191.20 959.16,189.02              959.98,186.84 960.68,184.96 961.26,183.39              962.54,182.46 963.14,181.52 963.07,180.56              963.00,179.61 962.55,178.95 961.73,178.59              960.91,178.23 959.86,178.28 958.57,178.75              957.29,179.21 956.08,180.33 954.95,182.11              953.37,184.61 951.98,187.66 950.76,191.27 Z            M 1010.51,189.72            C 1009.58,191.36 1008.53,192.94 1007.35,194.47              1006.17,196.00 1005.01,197.38 1003.87,198.59              1002.73,199.80 1001.62,200.86 1000.55,201.75              999.48,202.65 998.59,203.27 997.88,203.62              994.95,205.26 992.48,205.98 990.45,205.77              988.41,205.55 986.95,204.80 986.05,203.52              985.16,202.23 984.91,200.56 985.30,198.48              985.70,196.41 986.86,194.31 988.79,192.17              990.57,190.04 992.37,188.37 994.18,187.16              996.00,185.94 997.71,185.01 999.32,184.36              1000.92,183.71 1002.42,183.29 1003.80,183.08              1005.20,182.86 1006.43,182.68 1007.51,182.55              1008.36,182.40 1008.96,181.85 1009.32,180.89              1009.68,179.92 1009.79,178.91 1009.65,177.84              1009.50,176.77 1009.14,175.81 1008.57,174.95              1008.01,174.09 1007.23,173.73 1006.23,173.88              1003.95,174.80 1001.41,176.14 998.63,177.89              995.85,179.64 993.12,181.64 990.45,183.89              987.77,186.13 985.29,188.59 983.01,191.27              980.73,193.95 978.85,196.70 977.38,199.52              975.92,202.33 975.05,205.18 974.76,208.06              974.48,210.95 975.05,213.75 976.48,216.47              977.20,217.88 978.28,218.79 979.74,219.19              981.20,219.58 982.86,219.57 984.71,219.14              986.56,218.71 988.54,217.93 990.65,216.78              992.75,215.63 994.86,214.24 996.96,212.61              999.06,210.96 1001.09,209.09 1003.05,206.98              1005.02,204.88 1006.76,202.65 1008.26,200.30              1008.26,200.30 1007.18,203.94 1007.18,203.94              1004.90,211.07 1001.99,217.97 998.46,224.64              994.93,231.32 990.70,237.08 985.79,241.92              984.71,242.99 983.54,244.10 982.26,245.23              980.98,246.38 979.62,247.39 978.20,248.28              976.77,249.18 975.28,249.88 973.74,250.38              972.21,250.88 970.66,251.05 969.10,250.92              966.46,250.77 964.16,249.80 962.20,248.02              960.24,246.23 959.08,243.74 958.71,240.53              959.00,239.60 958.92,238.82 958.46,238.17              957.99,237.54 957.33,237.07 956.48,236.78              955.61,236.50 954.69,236.38 953.70,236.41              952.70,236.45 951.77,236.64 950.91,237.00              950.05,237.36 949.35,237.90 948.82,238.61              948.29,239.33 948.13,240.18 948.34,241.17              949.91,246.24 951.95,250.13 954.45,252.84              956.94,255.55 960.50,257.16 965.13,257.66              969.21,258.16 973.25,257.48 977.27,255.62              981.30,253.77 984.96,251.27 988.24,248.14              993.45,242.64 997.95,237.11 1001.73,231.55              1005.51,225.98 1008.73,220.20 1011.41,214.20              1014.09,208.21 1016.28,201.89 1017.99,195.22              1019.70,188.55 1021.09,181.33 1022.16,173.55              1022.45,172.62 1022.29,172.03 1021.68,171.78              1021.07,171.53 1020.27,171.52 1019.27,171.73              1018.27,171.95 1017.20,172.33 1016.05,172.86              1014.92,173.39 1013.94,174.00 1013.12,174.67              1012.30,175.35 1011.75,176.03 1011.46,176.72              1011.18,177.40 1011.43,177.95 1012.21,178.38              1012.21,178.38 1010.51,189.72 1010.51,189.72 Z            M 1028.13,185.70            C 1026.85,188.87 1025.72,192.03 1024.75,195.17              1023.79,198.31 1023.01,201.36 1022.41,204.31              1021.80,207.27 1021.46,209.93 1021.39,212.28              1021.32,214.13 1021.41,215.44 1021.66,216.19              1021.91,216.94 1022.43,217.31 1023.21,217.31              1024.63,217.31 1026.01,216.81 1027.33,215.81              1028.65,214.82 1030.15,213.24 1031.82,211.06              1033.49,208.89 1035.46,206.07 1037.71,202.61              1039.96,199.15 1042.72,194.92 1046.00,189.92              1045.93,190.50 1045.80,191.30 1045.63,192.34              1045.45,193.38 1045.29,194.48 1045.14,195.66              1045.00,196.84 1044.85,197.96 1044.71,199.03              1044.57,200.09 1044.50,200.88 1044.50,201.38              1044.50,202.45 1044.54,203.91 1044.61,205.77              1044.68,207.62 1044.95,209.42 1045.41,211.17              1045.88,212.91 1046.64,214.44 1047.71,215.77              1048.78,217.09 1050.32,217.75 1052.32,217.75              1054.67,217.82 1056.99,217.11 1059.27,215.61              1061.55,214.11 1063.72,212.31 1065.79,210.20              1067.86,208.10 1069.79,205.91 1071.57,203.62              1073.36,201.34 1074.89,199.45 1076.18,197.95              1076.60,197.45 1076.87,197.01 1076.97,196.62              1077.09,196.23 1077.14,195.92 1077.14,195.70              1077.14,195.28 1076.82,194.99 1076.18,194.84              1075.60,194.77 1075.03,194.98 1074.46,195.48              1073.89,195.98 1073.18,196.72 1072.32,197.69              1071.46,198.65 1070.45,199.77 1069.27,201.06              1068.09,202.34 1066.68,203.77 1065.05,205.33              1062.77,207.48 1060.89,208.51 1059.43,208.44              1057.96,208.37 1056.80,207.73 1055.94,206.52              1055.09,205.30 1054.50,203.73 1054.18,201.80              1053.86,199.87 1053.74,198.09 1053.82,196.45              1053.89,193.03 1054.53,189.53 1055.74,185.97              1056.95,182.40 1058.48,179.15 1060.33,176.23              1060.55,175.31 1060.66,174.59 1060.66,174.09              1060.73,172.67 1060.20,171.95 1059.05,171.95              1057.62,171.95 1056.18,172.44 1054.72,173.41              1053.26,174.37 1051.85,175.57 1050.49,177.03              1049.13,178.49 1047.83,180.04 1046.58,181.69              1045.34,183.32 1044.22,184.79 1043.22,186.08              1041.29,188.64 1039.53,191.16 1037.93,193.62              1036.32,196.09 1034.52,198.56 1032.52,201.05              1033.02,198.91 1033.61,196.62 1034.29,194.16              1034.96,191.69 1035.60,189.31 1036.21,187.03              1036.81,184.75 1037.32,182.67 1037.75,180.78              1038.19,178.89 1038.48,177.44 1038.61,176.44              1040.39,175.16 1041.29,174.20 1041.29,173.55              1041.36,172.91 1040.79,172.59 1039.58,172.59              1038.43,172.59 1037.07,172.95 1035.50,173.67              1033.94,174.38 1032.80,175.41 1032.10,176.77              1030.73,179.55 1029.41,182.53 1028.13,185.70 Z"
     style="stroke:none;stroke-opacity:1;fill:#ffffff;fill-opacity:1" />
</svg>
