<?xml version="1.0" encoding="UTF-8" standalone="no"?>
<svg
   xmlns:dc="http://purl.org/dc/elements/1.1/"
   xmlns:cc="http://creativecommons.org/ns#"
   xmlns:rdf="http://www.w3.org/1999/02/22-rdf-syntax-ns#"
   xmlns:svg="http://www.w3.org/2000/svg"
   xmlns="http://www.w3.org/2000/svg"
   xmlns:sodipodi="http://sodipodi.sourceforge.net/DTD/sodipodi-0.dtd"
   xmlns:inkscape="http://www.inkscape.org/namespaces/inkscape"
   width="1448.568"
   height="323.70929"
   viewBox="0 0 1159 259"
   id="svg4289"
   version="1.1"
   inkscape:version="0.91 r13725"
   sodipodi:docname="perrys-logo-black.svg">
  <metadata
     id="metadata4299">
    <rdf:RDF>
      <cc:Work
         rdf:about="">
        <dc:format>image/svg+xml</dc:format>
        <dc:type
           rdf:resource="http://purl.org/dc/dcmitype/StillImage" />
        <dc:title></dc:title>
      </cc:Work>
    </rdf:RDF>
  </metadata>
  <defs
     id="defs4297" />
  <sodipodi:namedview
     pagecolor="#ffffff"
     bordercolor="#666666"
     borderopacity="1"
     objecttolerance="10"
     gridtolerance="10"
     guidetolerance="10"
     inkscape:pageopacity="0"
     inkscape:pageshadow="2"
     inkscape:window-width="1920"
     inkscape:window-height="1016"
     id="namedview4295"
     showgrid="false"
     inkscape:zoom="0.61701141"
     inkscape:cx="380.65704"
     inkscape:cy="-35.92788"
     inkscape:window-x="0"
     inkscape:window-y="27"
     inkscape:window-maximized="1"
     inkscape:current-layer="svg4289"
     units="px" />
  <path
     id="Path"
     style="fill:#000000;fill-opacity:1;stroke:none;stroke-opacity:1"
     d="m 110.56,194.42 c 1.25,-0.57 2.69,-1.36 4.33,-2.36 0.64,-0.42 1.3,-0.83 1.98,-1.22 0.68,-0.39 1.38,-0.77 2.09,-1.12 -2.07,5.92 -3.73,11.89 -4.98,17.92 -1.25,6.02 -2.05,11.88 -2.41,17.59 -0.07,0.86 0.27,1.62 1.02,2.3 0.75,0.68 1.66,1.19 2.73,1.55 1.07,0.36 2.22,0.56 3.43,0.59 1.2,0.04 2.23,-0.15 3.09,-0.59 0.86,-0.43 1.42,-1.07 1.67,-1.92 0.25,-0.86 0.02,-2.04 -0.7,-3.54 -0.93,-0.85 -1.47,-2.49 -1.61,-4.92 -0.14,-2.43 0.06,-5.34 0.59,-8.76 0.54,-3.43 1.35,-7.23 2.41,-11.39 1.07,-4.18 2.36,-8.48 3.86,-12.91 2.99,-1.06 5.92,-1.89 8.81,-2.5 2.9,-0.61 5.68,-1.05 8.36,-1.3 2.68,-0.25 5.17,-0.37 7.48,-0.37 2.33,0 4.34,0.07 6.05,0.22 1.07,0.15 1.89,0.27 2.45,0.37 0.58,0.11 0.86,0.34 0.86,0.69 0,0.15 -0.07,0.36 -0.2,0.64 0,1 0.53,1.5 1.59,1.5 0.72,0 1.6,-0.3 2.63,-0.91 1.04,-0.6 2,-1.33 2.89,-2.18 0.9,-0.85 1.66,-1.76 2.3,-2.72 0.64,-0.97 0.97,-1.85 0.97,-2.64 0,-1.06 -0.68,-1.9 -2.04,-2.5 -1.35,-0.62 -3.74,-0.92 -7.17,-0.92 -5.84,0 -11.51,0.68 -17.01,2.03 -5.49,1.35 -10.77,2.85 -15.83,4.5 2.21,-5.85 4.63,-11.46 7.26,-16.8 2.65,-5.35 5.33,-9.92 8.04,-13.7 1.57,-0.85 2.37,-1.64 2.4,-2.35 0.04,-0.72 -0.31,-1.22 -1.06,-1.5 -0.75,-0.29 -1.7,-0.27 -2.84,0.05 -1.14,0.32 -2.14,1.13 -3,2.41 -3.5,4.21 -6.92,9.31 -10.27,15.31 -3.35,5.99 -6.39,12.48 -9.09,19.47 -2.15,0.71 -4.22,1.33 -6.22,1.87 -1.99,0.53 -3.92,0.98 -5.77,1.33 -0.57,0.15 -1.01,0.01 -1.29,-0.42 -0.29,-0.43 -0.61,-0.64 -0.96,-0.64 -0.5,0 -1.09,0.25 -1.76,0.75 -0.68,0.5 -1.34,1.12 -1.99,1.87 -0.63,0.75 -1.17,1.58 -1.59,2.52 -0.43,0.93 -0.64,1.78 -0.64,2.56 0,0.86 0.3,1.59 0.9,2.19 0.61,0.6 1.73,0.94 3.38,1.01 1.99,-0.13 3.61,-0.48 4.86,-1.06 z m -16.97,-26.7 c -0.64,-3.03 -0.1,-5.9 1.61,-8.61 1.72,-2.71 4.37,-5.27 7.97,-7.7 3.6,-2.43 7.77,-4.59 12.51,-6.47 4.75,-1.9 9.84,-3.54 15.25,-4.92 5.43,-1.4 10.78,-2.43 16.07,-3.11 5.28,-0.68 10.3,-1.02 15.07,-1.02 4.79,0 8.87,0.45 12.25,1.34 3.4,0.89 5.91,2.25 7.55,4.07 1.65,1.81 2.01,4.15 1.08,7 -1.5,1.22 -2.49,2.47 -2.95,3.75 -0.46,1.28 -0.57,2.48 -0.32,3.59 0.25,1.11 0.78,2.03 1.6,2.78 0.82,0.74 1.75,1.19 2.78,1.33 1.04,0.15 2.09,-0.08 3.15,-0.69 1.08,-0.61 2.04,-1.74 2.91,-3.37 2.63,-5.14 3.79,-9.4 3.47,-12.78 -0.32,-3.4 -1.59,-6.11 -3.8,-8.14 -2.21,-2.04 -5.15,-3.49 -8.83,-4.38 -3.67,-0.89 -7.54,-1.43 -11.6,-1.61 -4.07,-0.19 -8.1,-0.1 -12.1,0.27 -3.99,0.35 -7.45,0.74 -10.37,1.17 -3.07,0.5 -6.44,1.21 -10.11,2.14 -3.68,0.93 -7.43,2.07 -11.25,3.42 -3.82,1.36 -7.6,2.93 -11.35,4.72 -3.74,1.78 -7.23,3.78 -10.48,5.98 -3.24,2.22 -6.13,4.61 -8.66,7.18 -2.53,2.56 -4.43,5.34 -5.72,8.34 -0.85,2 -1.32,4 -1.39,6 -0.07,1.99 0.21,3.9 0.85,5.72 0.64,1.81 1.57,3.51 2.78,5.08 1.22,1.57 2.65,2.89 4.3,3.95 0.56,0.37 1.18,0.37 1.85,0.02 0.68,-0.37 1.27,-0.89 1.77,-1.57 0.5,-0.67 0.84,-1.4 1.02,-2.18 0.18,-0.79 0.09,-1.44 -0.27,-1.94 -3.78,-3.21 -6,-6.33 -6.64,-9.36 z m 106.37,19.33 c -0.78,2.56 -1.46,5.12 -2.03,7.68 -0.5,1 -0.97,1.9 -1.39,2.69 0,0 -1.08,1.81 -1.08,1.81 -0.85,1.58 -2.12,3.22 -3.8,4.93 -1.68,1.71 -3.37,2.93 -5.07,3.68 -1.71,0.75 -3.23,0.72 -4.55,-0.09 -1.33,-0.82 -2.06,-2.95 -2.2,-6.37 -0.14,-4.57 0.63,-8.77 2.31,-12.63 1.67,-3.85 3.62,-7.71 5.83,-11.56 1.07,-0.64 1.48,-1.22 1.23,-1.75 -0.25,-0.54 -0.79,-0.9 -1.61,-1.08 -0.82,-0.18 -1.75,-0.1 -2.78,0.22 -1.03,0.31 -1.87,0.97 -2.52,1.97 -2.71,4.5 -4.97,8.69 -6.79,12.57 -1.81,3.89 -3.22,8.05 -4.22,12.47 -0.29,1.21 -0.48,2.86 -0.55,4.93 -0.06,2.06 0.01,4.13 0.22,6.2 0.22,2.06 0.59,3.89 1.13,5.5 0.53,1.61 1.33,2.56 2.4,2.84 1.57,0.43 3.35,0.16 5.35,-0.81 2,-0.96 3.92,-2.2 5.78,-3.73 1.85,-1.54 3.56,-3.18 5.14,-4.93 1.57,-1.75 2.71,-3.22 3.42,-4.43 0,0 2.03,-3.43 2.03,-3.43 -0.35,2.07 -0.57,4.06 -0.64,5.99 -0.07,1.93 0.5,3.78 1.72,5.56 0.5,0.93 1.14,1.6 1.92,2.03 0.78,0.43 1.6,0.66 2.45,0.69 0.87,0.04 1.76,-0.06 2.69,-0.31 0.93,-0.25 1.82,-0.59 2.67,-1.02 1.57,-0.78 3.23,-1.92 4.97,-3.42 1.75,-1.5 3.43,-3.18 5.03,-5.03 1.6,-1.85 3.07,-3.77 4.39,-5.77 1.32,-2 2.34,-3.86 3.05,-5.57 0.35,-0.79 0.49,-1.34 0.42,-1.66 -0.06,-0.32 -0.22,-0.46 -0.47,-0.42 -0.25,0.03 -0.57,0.23 -0.96,0.59 -0.4,0.36 -0.74,0.78 -1.02,1.28 -1,1.78 -2.34,3.73 -4.02,5.83 -1.68,2.11 -3.37,3.86 -5.07,5.25 -1.72,1.39 -3.32,2.12 -4.82,2.19 -1.5,0.07 -2.57,-1.07 -3.22,-3.42 -0.42,-1.5 -0.59,-3.59 -0.48,-6.27 0.11,-2.68 0.35,-5.49 0.7,-8.45 0.36,-2.96 0.75,-5.78 1.18,-8.46 0.42,-2.67 0.75,-4.76 0.96,-6.26 0.07,-0.99 -0.12,-1.49 -0.59,-1.49 -0.46,0 -1,0.22 -1.61,0.64 -0.6,0.43 -1.19,0.97 -1.76,1.61 -0.57,0.64 -0.92,1.14 -1.07,1.49 -1,2.57 -1.89,5.15 -2.67,7.72 z m 39.42,-12.32 c -0.06,-0.71 -0.61,-1.02 -1.65,-0.9 -1.03,0.1 -2.28,0.62 -3.75,1.55 -1.46,0.92 -2.69,2.24 -3.69,3.95 -0.93,1.65 -2.03,3.88 -3.31,6.7 -1.28,2.81 -2.5,5.88 -3.64,9.2 -1.14,3.32 -2.11,6.72 -2.89,10.22 -0.79,3.5 -1.11,6.73 -0.96,9.72 -0.43,0.87 -0.07,1.4 1.06,1.61 1.15,0.22 2.45,0.1 3.91,-0.37 1.47,-0.46 2.79,-1.28 3.97,-2.46 1.18,-1.17 1.66,-2.76 1.44,-4.76 0,0 0.42,-4.39 0.42,-4.39 0.64,-1.21 1.53,-2.73 2.67,-4.55 1.15,-1.82 2.41,-3.69 3.8,-5.61 1.39,-1.93 2.86,-3.74 4.39,-5.45 1.54,-1.72 3.08,-3.06 4.61,-4.02 1.53,-0.97 2.95,-1.38 4.28,-1.23 1.32,0.13 2.48,1.06 3.47,2.78 0.14,1.71 0.61,2.58 1.39,2.62 0.79,0.04 1.63,-0.39 2.51,-1.28 0.9,-0.89 1.75,-2.13 2.57,-3.7 0.82,-1.57 1.39,-3.14 1.72,-4.7 0.32,-1.57 0.28,-2.99 -0.11,-4.24 -0.39,-1.25 -1.33,-2.01 -2.83,-2.3 -1.86,-0.35 -4.07,0.24 -6.64,1.77 -2.57,1.53 -5.14,3.51 -7.71,5.94 -2.56,2.43 -4.95,4.99 -7.17,7.7 -2.21,2.71 -3.95,5.06 -5.23,7.06 0.28,-1.35 0.65,-2.88 1.11,-4.59 0.47,-1.72 0.95,-3.41 1.45,-5.09 0.5,-1.68 0.95,-3.23 1.34,-4.64 0.4,-1.43 0.66,-2.47 0.8,-3.11 1.85,-1.57 2.74,-2.71 2.67,-3.43 z m 26.55,10.97 c -1.29,3.17 -2.41,6.33 -3.38,9.47 -0.96,3.14 -1.74,6.19 -2.34,9.14 -0.61,2.96 -0.95,5.62 -1.02,7.97 -0.07,1.85 0.02,3.16 0.27,3.91 0.25,0.75 0.76,1.12 1.54,1.12 1.43,0 2.8,-0.5 4.13,-1.5 1.32,-0.99 2.82,-2.57 4.48,-4.75 1.68,-2.17 3.64,-4.99 5.89,-8.45 2.25,-3.46 5.02,-7.69 8.3,-12.69 -0.07,0.58 -0.2,1.38 -0.37,2.42 -0.18,1.04 -0.34,2.14 -0.49,3.32 -0.15,1.18 -0.29,2.3 -0.44,3.37 -0.13,1.06 -0.2,1.85 -0.2,2.35 0,1.07 0.04,2.53 0.11,4.39 0.07,1.85 0.34,3.65 0.8,5.4 0.47,1.74 1.23,3.27 2.29,4.6 1.07,1.32 2.61,1.98 4.61,1.98 2.35,0.07 4.68,-0.64 6.96,-2.14 2.28,-1.5 4.45,-3.3 6.51,-5.41 2.07,-2.1 4,-4.29 5.78,-6.58 1.79,-2.28 3.33,-4.17 4.61,-5.67 0.43,-0.5 0.69,-0.94 0.8,-1.33 0.11,-0.39 0.17,-0.7 0.17,-0.92 0,-0.42 -0.32,-0.71 -0.97,-0.86 -0.57,-0.07 -1.15,0.14 -1.72,0.64 -0.56,0.5 -1.27,1.24 -2.14,2.21 -0.85,0.96 -1.87,2.08 -3.04,3.37 -1.18,1.28 -2.59,2.71 -4.22,4.27 -2.28,2.15 -4.16,3.18 -5.63,3.11 -1.46,-0.07 -2.62,-0.71 -3.48,-1.92 -0.86,-1.22 -1.45,-2.79 -1.77,-4.72 -0.31,-1.93 -0.43,-3.71 -0.36,-5.35 0.07,-3.42 0.71,-6.92 1.93,-10.48 1.2,-3.57 2.73,-6.82 4.59,-9.74 0.22,-0.92 0.33,-1.64 0.33,-2.14 0.07,-1.42 -0.47,-2.14 -1.61,-2.14 -1.43,0 -2.87,0.49 -4.33,1.46 -1.46,0.96 -2.87,2.16 -4.23,3.62 -1.36,1.46 -2.66,3.01 -3.91,4.66 -1.24,1.63 -2.36,3.1 -3.36,4.39 -1.93,2.56 -3.7,5.08 -5.3,7.54 -1.6,2.47 -3.4,4.94 -5.4,7.43 0.5,-2.14 1.08,-4.43 1.76,-6.89 0.68,-2.47 1.32,-4.85 1.92,-7.13 0.61,-2.28 1.12,-4.36 1.55,-6.25 0.44,-1.89 0.72,-3.34 0.86,-4.34 1.78,-1.28 2.67,-2.24 2.67,-2.89 0.07,-0.64 -0.49,-0.96 -1.7,-0.96 -1.15,0 -2.51,0.36 -4.08,1.08 -1.56,0.71 -2.7,1.74 -3.41,3.1 -1.36,2.78 -2.68,5.76 -3.96,8.93 z m 58.74,-22.2 c -0.71,1.28 -1.13,2.25 -1.26,2.89 -0.15,0.78 0.08,1.48 0.68,2.08 0.61,0.6 1.27,0.91 1.99,0.91 0.64,0 1.52,-0.2 2.62,-0.58 1.1,-0.4 2.21,-0.88 3.32,-1.46 1.1,-0.57 2.06,-1.21 2.89,-1.92 0.82,-0.71 1.3,-1.38 1.43,-2.03 0.07,-0.28 -0.09,-0.37 -0.48,-0.27 -0.39,0.11 -0.79,0.25 -1.22,0.43 -0.43,0.18 -0.76,0.23 -1.02,0.17 -0.24,-0.07 -0.16,-0.51 0.27,-1.3 0.43,-0.78 0.57,-1.38 0.42,-1.81 -0.13,-0.43 -0.38,-0.74 -0.75,-0.95 -0.35,-0.22 -0.74,-0.37 -1.17,-0.44 -0.43,-0.07 -0.71,-0.11 -0.86,-0.11 -0.35,0 -0.96,0.12 -1.81,0.37 -0.86,0.25 -1.68,0.63 -2.47,1.13 -1,0.64 -1.86,1.6 -2.58,2.89 z m -11.01,27.77 c -1.21,3.6 -2.03,7.13 -2.46,10.59 -0.43,3.46 -0.32,6.54 0.32,9.25 0.64,2.71 2.03,4.42 4.18,5.14 2.28,0.78 4.6,0.83 6.96,0.16 2.35,-0.68 4.64,-1.8 6.89,-3.36 2.25,-1.57 4.4,-3.45 6.47,-5.63 2.07,-2.17 3.96,-4.37 5.68,-6.58 1.14,-1.42 1.85,-2.64 2.13,-3.64 0.29,-1 0.31,-1.67 0.06,-2.03 -0.25,-0.35 -0.71,-0.4 -1.39,-0.15 -0.68,0.24 -1.41,0.86 -2.19,1.86 -0.72,0.85 -1.7,2.05 -2.95,3.59 -1.24,1.53 -2.65,2.91 -4.22,4.12 -1.57,1.21 -3.25,2.09 -5.03,2.63 -1.78,0.53 -3.56,0.23 -5.34,-0.92 -1.65,-1.07 -2.6,-2.57 -2.85,-4.5 -0.25,-1.93 -0.16,-4 0.27,-6.21 0.42,-2.2 1.05,-4.39 1.87,-6.57 0.82,-2.18 1.52,-4.06 2.1,-5.63 1.28,-0.93 1.88,-1.87 1.81,-2.83 -0.08,-0.95 -0.52,-1.61 -1.35,-1.97 -0.81,-0.36 -1.86,-0.31 -3.15,0.16 -1.28,0.46 -2.49,1.58 -3.63,3.36 -1.57,2.5 -2.96,5.55 -4.18,9.16 z m 58.88,-20.29 c -2.43,0.5 -4.89,1.28 -7.39,2.32 -2.49,1.03 -4.88,2.24 -7.17,3.64 -2.28,1.38 -4.26,2.9 -5.94,4.54 -1.66,1.64 -2.93,3.35 -3.79,5.13 -0.86,1.78 -1.04,3.56 -0.54,5.34 -1.92,1.08 -3.73,2.29 -5.4,3.64 -1.68,1.36 -3.02,2.86 -4.02,4.5 -0.99,1.64 -1.58,3.41 -1.76,5.3 -0.18,1.89 0.23,3.83 1.23,5.83 0.65,1.28 1.6,2.55 2.85,3.8 1.25,1.25 2.72,2.37 4.43,3.37 1.71,1 3.62,1.78 5.72,2.34 2.1,0.57 4.33,0.79 6.69,0.66 1.72,-0.07 3.77,-0.47 6.16,-1.19 2.39,-0.71 4.6,-1.74 6.64,-3.11 2.03,-1.35 3.68,-3.06 4.96,-5.12 1.29,-2.07 1.71,-4.5 1.29,-7.28 -0.21,-1.35 -0.94,-2.6 -2.19,-3.74 -1.25,-1.14 -2.7,-2.22 -4.35,-3.22 -1.63,-1 -3.34,-1.96 -5.12,-2.89 -1.78,-0.92 -3.32,-1.89 -4.61,-2.89 0,0 3.44,-0.64 3.44,-0.64 5.91,-0.7 11.03,-0.7 15.34,0.02 4.32,0.71 7.27,1.84 8.83,3.4 0.72,0.72 1.25,1.3 1.61,1.72 0.35,0.43 0.6,0.78 0.75,1.07 0,0.29 0.12,0.52 0.37,0.7 0.25,0.18 0.5,0.25 0.75,0.22 0.25,-0.04 0.5,-0.21 0.75,-0.49 0.25,-0.29 0.41,-0.79 0.49,-1.5 0.06,-0.64 -0.2,-1.32 -0.77,-2.03 -0.56,-0.72 -1.29,-1.39 -2.18,-2.03 -0.89,-0.64 -1.89,-1.23 -3,-1.77 -1.11,-0.53 -2.19,-0.98 -3.25,-1.34 -4,-1.21 -8.32,-1.88 -12.96,-2.03 -4.63,-0.14 -8.98,0.25 -13.04,1.17 -0.87,-1.78 -0.88,-3.38 -0.02,-4.81 0.86,-1.43 2.24,-2.6 4.12,-3.53 1.9,-0.93 4.16,-1.49 6.8,-1.7 2.63,-0.22 5.31,-0.01 8.03,0.64 0.93,1.13 1.89,1.76 2.88,1.87 1,0.11 1.89,-0.13 2.67,-0.7 0.79,-0.57 1.41,-1.35 1.87,-2.35 0.47,-1 0.67,-2.01 0.6,-3.04 -0.08,-1.04 -0.52,-1.98 -1.35,-2.8 -0.81,-0.82 -2.07,-1.34 -3.78,-1.55 -2,-0.14 -4.21,0.03 -6.64,0.53 z m -29.53,34.3 c -0.07,-1.32 0.16,-2.57 0.69,-3.75 0.54,-1.17 1.34,-2.26 2.41,-3.26 1.07,-1 2.32,-1.89 3.75,-2.68 0.85,0.79 2.06,1.7 3.64,2.74 1.57,1.03 3.17,2.1 4.81,3.2 1.64,1.11 3.21,2.23 4.7,3.38 1.5,1.13 2.63,2.26 3.38,3.37 0.75,1.11 0.97,2.17 0.68,3.2 -0.28,1.04 -1.35,1.95 -3.2,2.74 -1.64,0.71 -3.42,1.08 -5.34,1.11 -1.93,0.04 -3.81,-0.19 -5.63,-0.69 -1.81,-0.5 -3.49,-1.19 -5.03,-2.08 -1.53,-0.89 -2.65,-1.94 -3.36,-3.15 -0.93,-1.43 -1.43,-2.8 -1.5,-4.13 z m 65.97,-61.73 c -2.03,4.16 -3.98,8.55 -5.83,13.15 -1.86,4.61 -3.59,9.37 -5.19,14.3 -1.6,4.92 -3.03,9.82 -4.28,14.7 -1.25,4.89 -2.3,9.69 -3.16,14.39 -0.85,4.71 -1.49,9.17 -1.92,13.38 -0.15,1.35 -0.13,2.41 0.05,3.15 0.19,0.76 0.47,1.31 0.86,1.66 0.39,0.35 0.82,0.58 1.28,0.69 0.47,0.11 0.95,0.21 1.45,0.28 0.71,-0.22 1.4,-0.73 2.08,-1.52 0.68,-0.78 1.34,-1.68 1.98,-2.71 0.65,-1.04 1.27,-2.12 1.88,-3.25 0.6,-1.15 1.23,-2.22 1.87,-3.22 0.93,-1.43 2.09,-3.14 3.47,-5.14 1.4,-2 2.86,-4.03 4.39,-6.1 1.54,-2.07 3.01,-4.03 4.44,-5.89 1.43,-1.85 2.68,-3.31 3.75,-4.39 -0.57,1.72 -1.07,3.49 -1.5,5.31 -0.43,1.82 -0.79,3.56 -1.08,5.24 -0.28,1.68 -0.49,3.23 -0.64,4.65 -0.13,1.43 -0.2,2.68 -0.2,3.74 0,3.57 0.62,6.11 1.87,7.61 1.25,1.49 3.12,2.23 5.61,2.23 2.36,0 4.54,-0.6 6.54,-1.81 2,-1.21 3.86,-2.74 5.6,-4.59 1.75,-1.87 3.38,-3.92 4.88,-6.16 1.5,-2.25 2.89,-4.41 4.17,-6.48 0.35,-0.79 0.44,-1.37 0.27,-1.75 -0.18,-0.4 -0.52,-0.57 -1.02,-0.54 -0.5,0.04 -1.09,0.29 -1.76,0.75 -0.68,0.47 -1.27,1.16 -1.77,2.08 -0.93,1.28 -1.86,2.5 -2.78,3.64 -0.93,1.14 -1.91,2.12 -2.94,2.94 -1.03,0.82 -2.14,1.43 -3.31,1.83 -1.18,0.39 -2.42,0.44 -3.7,0.16 -1.93,-0.44 -3.02,-1.55 -3.27,-3.33 -0.25,-1.78 -0.11,-3.82 0.42,-6.1 0.54,-2.28 1.28,-4.57 2.21,-6.89 0.92,-2.32 1.64,-4.23 2.14,-5.73 0.35,-1.22 0.81,-2.6 1.39,-4.13 0.57,-1.53 0.89,-3.04 0.97,-4.54 0,-0.57 -0.22,-1.21 -0.65,-1.93 -0.43,-0.71 -1,-1.03 -1.71,-0.96 -0.64,0 -1.39,0.28 -2.25,0.85 -0.86,0.58 -1.75,1.24 -2.68,1.99 -0.93,0.75 -1.82,1.57 -2.67,2.47 -0.85,0.88 -1.57,1.65 -2.14,2.28 -1.5,1.87 -2.86,3.51 -4.08,4.94 -1.21,1.41 -2.4,2.84 -3.57,4.26 -1.18,1.43 -2.4,2.95 -3.65,4.56 -1.24,1.61 -2.64,3.48 -4.21,5.61 0.35,-12.12 2.61,-23.66 6.78,-34.61 4.17,-10.95 10.01,-21.14 17.51,-30.54 1.71,-0.57 2.37,-1.32 1.97,-2.25 -0.39,-0.93 -1.26,-1.66 -2.62,-2.19 -1.36,-0.54 -2.93,-0.69 -4.71,-0.44 -1.78,0.25 -3.21,1.23 -4.28,2.94 -2.13,3.43 -4.22,7.23 -6.26,11.41 z m 43.79,19.95 c -0.71,1.28 -1.13,2.25 -1.26,2.89 -0.15,0.78 0.08,1.48 0.69,2.08 0.6,0.6 1.26,0.91 1.98,0.91 0.64,0 1.52,-0.2 2.62,-0.58 1.11,-0.4 2.21,-0.88 3.32,-1.46 1.1,-0.57 2.06,-1.21 2.89,-1.92 0.82,-0.71 1.3,-1.38 1.44,-2.03 0.07,-0.28 -0.09,-0.37 -0.49,-0.27 -0.39,0.11 -0.79,0.25 -1.22,0.43 -0.43,0.18 -0.76,0.23 -1.01,0.17 -0.25,-0.07 -0.17,-0.51 0.26,-1.3 0.43,-0.78 0.57,-1.38 0.42,-1.81 -0.13,-0.43 -0.38,-0.74 -0.75,-0.95 -0.35,-0.22 -0.74,-0.37 -1.17,-0.44 -0.43,-0.07 -0.71,-0.11 -0.86,-0.11 -0.35,0 -0.96,0.12 -1.81,0.37 -0.86,0.25 -1.68,0.63 -2.47,1.13 -1,0.64 -1.86,1.6 -2.58,2.89 z m -11.01,27.77 c -1.21,3.6 -2.03,7.13 -2.46,10.59 -0.42,3.46 -0.32,6.54 0.32,9.25 0.64,2.71 2.04,4.42 4.18,5.14 2.29,0.78 4.6,0.83 6.96,0.16 2.35,-0.68 4.65,-1.8 6.89,-3.36 2.25,-1.57 4.4,-3.45 6.47,-5.63 2.07,-2.17 3.97,-4.37 5.68,-6.58 1.14,-1.42 1.85,-2.64 2.13,-3.64 0.29,-1 0.31,-1.67 0.06,-2.03 -0.25,-0.35 -0.71,-0.4 -1.39,-0.15 -0.68,0.24 -1.4,0.86 -2.19,1.86 -0.71,0.85 -1.7,2.05 -2.95,3.59 -1.24,1.53 -2.65,2.91 -4.22,4.12 -1.57,1.21 -3.25,2.09 -5.03,2.63 -1.78,0.53 -3.56,0.23 -5.34,-0.92 -1.65,-1.07 -2.6,-2.57 -2.85,-4.5 -0.25,-1.93 -0.16,-4 0.27,-6.21 0.42,-2.2 1.05,-4.39 1.87,-6.57 0.82,-2.18 1.52,-4.06 2.1,-5.63 1.28,-0.93 1.88,-1.87 1.81,-2.83 -0.07,-0.95 -0.52,-1.61 -1.34,-1.97 -0.82,-0.36 -1.87,-0.31 -3.16,0.16 -1.28,0.46 -2.49,1.58 -3.62,3.36 -1.58,2.5 -2.97,5.55 -4.19,9.16 z m 32.67,-5.57 c -1.29,3.17 -2.41,6.33 -3.38,9.47 -0.96,3.14 -1.74,6.19 -2.34,9.14 -0.61,2.96 -0.95,5.62 -1.02,7.97 -0.07,1.85 0.02,3.16 0.27,3.91 0.25,0.75 0.76,1.12 1.54,1.12 1.43,0 2.8,-0.5 4.13,-1.5 1.32,-0.99 2.82,-2.57 4.48,-4.75 1.68,-2.17 3.64,-4.99 5.89,-8.45 2.25,-3.46 5.02,-7.69 8.3,-12.69 -0.07,0.58 -0.2,1.38 -0.37,2.42 -0.18,1.04 -0.34,2.14 -0.49,3.32 -0.15,1.18 -0.29,2.3 -0.44,3.37 -0.13,1.06 -0.2,1.85 -0.2,2.35 0,1.07 0.04,2.53 0.11,4.39 0.07,1.85 0.34,3.65 0.8,5.4 0.47,1.74 1.23,3.27 2.29,4.6 1.07,1.32 2.61,1.98 4.61,1.98 2.35,0.07 4.68,-0.64 6.96,-2.14 2.28,-1.5 4.45,-3.3 6.51,-5.41 2.07,-2.1 4,-4.29 5.78,-6.58 1.79,-2.28 3.33,-4.17 4.61,-5.67 0.43,-0.5 0.69,-0.94 0.8,-1.33 0.11,-0.39 0.17,-0.7 0.17,-0.92 0,-0.42 -0.32,-0.71 -0.97,-0.86 -0.57,-0.07 -1.15,0.14 -1.72,0.64 -0.56,0.5 -1.27,1.24 -2.14,2.21 -0.85,0.96 -1.87,2.08 -3.04,3.37 -1.18,1.28 -2.59,2.71 -4.22,4.27 -2.28,2.15 -4.16,3.18 -5.63,3.11 -1.46,-0.07 -2.62,-0.71 -3.48,-1.92 -0.86,-1.22 -1.45,-2.79 -1.77,-4.72 -0.31,-1.93 -0.43,-3.71 -0.36,-5.35 0.07,-3.42 0.71,-6.92 1.93,-10.48 1.2,-3.57 2.73,-6.82 4.59,-9.74 0.22,-0.92 0.33,-1.64 0.33,-2.14 0.07,-1.42 -0.47,-2.14 -1.61,-2.14 -1.43,0 -2.87,0.49 -4.33,1.46 -1.46,0.96 -2.87,2.16 -4.23,3.62 -1.36,1.46 -2.66,3.01 -3.91,4.66 -1.24,1.63 -2.36,3.1 -3.36,4.39 -1.93,2.56 -3.7,5.08 -5.3,7.54 -1.6,2.47 -3.4,4.94 -5.4,7.43 0.5,-2.14 1.08,-4.43 1.76,-6.89 0.68,-2.47 1.32,-4.85 1.92,-7.13 0.61,-2.28 1.12,-4.36 1.55,-6.25 0.44,-1.89 0.72,-3.34 0.86,-4.34 1.78,-1.28 2.67,-2.24 2.67,-2.89 0.07,-0.64 -0.49,-0.96 -1.7,-0.96 -1.15,0 -2.51,0.36 -4.08,1.08 -1.56,0.71 -2.7,1.74 -3.41,3.1 -1.36,2.78 -2.68,5.76 -3.96,8.93 z m 75.77,4.02 c -0.93,1.64 -1.98,3.22 -3.15,4.75 -1.18,1.53 -2.34,2.91 -3.49,4.12 -1.13,1.21 -2.24,2.27 -3.31,3.16 -1.07,0.9 -1.96,1.52 -2.67,1.87 -2.93,1.64 -5.41,2.36 -7.44,2.15 -2.03,-0.22 -3.5,-0.97 -4.39,-2.25 -0.9,-1.29 -1.15,-2.96 -0.75,-5.04 0.39,-2.07 1.55,-4.17 3.48,-6.31 1.79,-2.13 3.58,-3.8 5.4,-5.01 1.82,-1.22 3.53,-2.15 5.14,-2.8 1.6,-0.65 3.09,-1.07 4.48,-1.28 1.39,-0.22 2.63,-0.4 3.7,-0.53 0.85,-0.15 1.46,-0.7 1.82,-1.66 0.36,-0.97 0.47,-1.98 0.32,-3.05 -0.14,-1.07 -0.5,-2.03 -1.07,-2.89 -0.57,-0.86 -1.35,-1.22 -2.35,-1.07 -2.28,0.92 -4.81,2.26 -7.59,4.01 -2.78,1.75 -5.51,3.75 -8.19,6 -2.68,2.24 -5.16,4.7 -7.44,7.38 -2.28,2.68 -4.15,5.43 -5.62,8.25 -1.46,2.81 -2.34,5.66 -2.63,8.54 -0.28,2.89 0.29,5.69 1.72,8.41 0.72,1.41 1.81,2.32 3.27,2.72 1.45,0.39 3.11,0.38 4.97,-0.05 1.85,-0.43 3.83,-1.21 5.93,-2.36 2.11,-1.15 4.21,-2.54 6.32,-4.17 2.1,-1.65 4.13,-3.52 6.09,-5.63 1.97,-2.1 3.7,-4.33 5.2,-6.68 0,0 -1.07,3.64 -1.07,3.64 -2.29,7.13 -5.19,14.03 -8.72,20.7 -3.54,6.68 -7.76,12.44 -12.68,17.28 -1.07,1.07 -2.25,2.18 -3.53,3.31 -1.28,1.15 -2.63,2.16 -4.06,3.05 -1.43,0.9 -2.91,1.6 -4.45,2.1 -1.53,0.5 -3.08,0.67 -4.64,0.54 -2.65,-0.15 -4.95,-1.12 -6.91,-2.9 -1.96,-1.79 -3.12,-4.28 -3.48,-7.49 0.29,-0.93 0.21,-1.71 -0.25,-2.36 -0.47,-0.63 -1.13,-1.1 -1.99,-1.39 -0.86,-0.28 -1.79,-0.4 -2.78,-0.37 -1,0.04 -1.93,0.23 -2.78,0.59 -0.86,0.36 -1.56,0.9 -2.09,1.61 -0.54,0.72 -0.7,1.57 -0.49,2.56 1.58,5.07 3.61,8.96 6.11,11.67 2.49,2.71 6.06,4.32 10.69,4.82 4.07,0.5 8.12,-0.18 12.14,-2.04 4.03,-1.85 7.69,-4.35 10.97,-7.48 5.2,-5.5 9.7,-11.03 13.48,-16.59 3.78,-5.57 7.01,-11.35 9.69,-17.35 2.68,-5.99 4.87,-12.31 6.58,-18.98 1.7,-6.67 3.1,-13.89 4.17,-21.67 0.29,-0.93 0.13,-1.52 -0.48,-1.77 -0.61,-0.25 -1.41,-0.26 -2.41,-0.05 -1,0.22 -2.08,0.6 -3.22,1.13 -1.14,0.53 -2.12,1.14 -2.94,1.81 -0.81,0.68 -1.36,1.36 -1.65,2.05 -0.28,0.68 -0.04,1.23 0.75,1.66 0,0 -1.71,11.34 -1.71,11.34 z m 43.85,-18.74 c -2.43,0.5 -4.89,1.28 -7.39,2.32 -2.5,1.03 -4.89,2.24 -7.18,3.64 -2.28,1.38 -4.26,2.9 -5.93,4.54 -1.67,1.64 -2.94,3.35 -3.8,5.13 -0.86,1.78 -1.03,3.56 -0.53,5.34 -1.93,1.08 -3.73,2.29 -5.41,3.64 -1.68,1.36 -3.01,2.86 -4.01,4.5 -1,1.64 -1.58,3.41 -1.77,5.3 -0.18,1.89 0.24,3.83 1.24,5.83 0.64,1.28 1.59,2.55 2.84,3.8 1.25,1.25 2.73,2.37 4.44,3.37 1.7,1 3.61,1.78 5.72,2.34 2.1,0.57 4.33,0.79 6.68,0.66 1.72,-0.07 3.77,-0.47 6.16,-1.19 2.39,-0.71 4.61,-1.74 6.64,-3.11 2.03,-1.35 3.69,-3.06 4.97,-5.12 1.28,-2.07 1.71,-4.5 1.28,-7.28 -0.21,-1.35 -0.94,-2.6 -2.19,-3.74 -1.25,-1.14 -2.7,-2.22 -4.34,-3.22 -1.64,-1 -3.35,-1.96 -5.13,-2.89 -1.78,-0.92 -3.32,-1.89 -4.61,-2.89 0,0 3.44,-0.64 3.44,-0.64 5.92,-0.7 11.03,-0.7 15.35,0.02 4.32,0.71 7.26,1.84 8.82,3.4 0.72,0.72 1.26,1.3 1.61,1.72 0.35,0.43 0.6,0.78 0.75,1.07 0,0.29 0.13,0.52 0.38,0.7 0.25,0.18 0.5,0.25 0.75,0.22 0.25,-0.04 0.5,-0.21 0.75,-0.49 0.25,-0.29 0.41,-0.79 0.48,-1.5 0.06,-0.64 -0.19,-1.32 -0.76,-2.03 -0.57,-0.72 -1.3,-1.39 -2.19,-2.03 -0.89,-0.64 -1.89,-1.23 -3,-1.77 -1.11,-0.53 -2.19,-0.98 -3.25,-1.34 -4,-1.21 -8.32,-1.88 -12.95,-2.03 -4.64,-0.14 -8.99,0.25 -13.05,1.17 -0.87,-1.78 -0.87,-3.38 -0.02,-4.81 0.87,-1.43 2.24,-2.6 4.13,-3.53 1.89,-0.93 4.16,-1.49 6.8,-1.7 2.63,-0.22 5.31,-0.01 8.03,0.64 0.92,1.13 1.88,1.76 2.87,1.87 1,0.11 1.89,-0.13 2.67,-0.7 0.79,-0.57 1.42,-1.35 1.88,-2.35 0.47,-1 0.66,-2.01 0.59,-3.04 -0.07,-1.04 -0.52,-1.98 -1.34,-2.8 -0.81,-0.82 -2.08,-1.34 -3.78,-1.55 -2,-0.14 -4.22,0.03 -6.64,0.53 z m -29.53,34.3 c -0.08,-1.32 0.15,-2.57 0.68,-3.75 0.54,-1.17 1.35,-2.26 2.41,-3.26 1.07,-1 2.32,-1.89 3.75,-2.68 0.85,0.79 2.07,1.7 3.64,2.74 1.57,1.03 3.18,2.1 4.81,3.2 1.65,1.11 3.21,2.23 4.71,3.38 1.5,1.13 2.62,2.26 3.37,3.37 0.75,1.11 0.98,2.17 0.69,3.2 -0.28,1.04 -1.35,1.95 -3.2,2.74 -1.64,0.71 -3.42,1.08 -5.35,1.11 -1.93,0.04 -3.8,-0.19 -5.62,-0.69 -1.82,-0.5 -3.5,-1.19 -5.03,-2.08 -1.54,-0.89 -2.66,-1.94 -3.36,-3.15 -0.93,-1.43 -1.43,-2.8 -1.5,-4.13 z m 141.1,-0.16 c -2.21,-0.57 -4.46,-1.53 -6.75,-2.89 4,-2.78 7.21,-5.75 9.64,-8.93 2.42,-3.18 3.64,-6.37 3.64,-9.58 -0.08,-1.63 -0.53,-2.86 -1.35,-3.69 -0.82,-0.82 -1.8,-1.33 -2.95,-1.55 -1.14,-0.21 -2.29,-0.2 -3.47,0.05 -1.18,0.25 -2.14,0.63 -2.89,1.13 -0.75,0.5 -1.16,1.04 -1.23,1.61 -0.06,0.56 0.44,1.05 1.5,1.48 0.79,1.57 1.16,3.11 1.12,4.61 -0.03,1.5 -0.4,2.95 -1.12,4.34 -0.71,1.39 -1.69,2.71 -2.94,3.96 -1.25,1.24 -2.7,2.39 -4.33,3.46 -3.85,-2.98 -7.46,-6.58 -10.81,-10.79 -3.36,-4.22 -6.1,-8.57 -8.23,-13.06 3.48,-2.29 7,-4.74 10.53,-7.38 3.53,-2.64 6.64,-5.36 9.36,-8.14 2.71,-2.78 4.86,-5.63 6.42,-8.56 1.57,-2.93 2.18,-5.81 1.83,-8.66 -0.37,-2.72 -1.66,-4.63 -3.86,-5.73 -2.21,-1.1 -4.87,-1.53 -7.97,-1.28 -3.11,0.25 -6.41,1.07 -9.91,2.46 -3.49,1.39 -6.66,3.17 -9.51,5.35 -2.86,2.18 -5.2,4.68 -7.02,7.5 -1.81,2.81 -2.54,5.75 -2.19,8.81 0.29,2.5 0.74,4.97 1.35,7.39 0.6,2.43 1.36,4.78 2.29,7.06 -1.43,0.86 -2.82,1.7 -4.17,2.52 -1.35,0.81 -2.67,1.65 -3.95,2.51 -1.79,1.22 -3.58,2.44 -5.36,3.69 -1.78,1.25 -3.48,2.59 -5.08,4.02 -1.6,1.43 -3.09,2.98 -4.44,4.65 -1.35,1.67 -2.46,3.47 -3.32,5.4 -1.22,2.57 -1.77,4.8 -1.66,6.7 0.11,1.88 0.66,3.51 1.66,4.86 1,1.35 2.31,2.49 3.95,3.42 1.64,0.93 3.39,1.64 5.25,2.14 3,0.85 6.24,1.3 9.73,1.33 3.5,0.04 7.08,-0.3 10.75,-1.02 3.68,-0.7 7.33,-1.72 10.97,-3.03 3.65,-1.32 7.15,-2.84 10.5,-4.56 1.85,1.65 3.71,3.22 5.56,4.72 1.86,1.49 3.71,2.91 5.57,4.28 1.7,0.56 3.34,0.64 4.92,0.25 1.57,-0.39 2.97,-1.01 4.22,-1.86 1.25,-0.85 2.26,-1.83 3.04,-2.94 0.79,-1.11 1.26,-2.15 1.39,-3.11 0.15,-0.97 -0.12,-1.72 -0.79,-2.25 -0.68,-0.53 -1.84,-0.65 -3.47,-0.37 -2.08,0.35 -4.22,0.25 -6.42,-0.32 z M 677.37,191.8 c 3.13,3.88 6.45,7.54 9.95,10.97 -3.36,1.35 -6.92,2.4 -10.7,3.15 -3.78,0.75 -7.42,1.09 -10.92,1.02 -3.5,-0.07 -6.7,-0.57 -9.63,-1.5 -2.93,-0.93 -5.17,-2.39 -6.73,-4.39 -1.08,-1.35 -1.6,-2.62 -1.57,-3.8 0.04,-1.18 0.46,-2.3 1.24,-3.36 0.79,-1.07 1.8,-2.12 3.04,-3.16 1.25,-1.03 2.59,-2.09 4.02,-3.15 1.28,-1 3.08,-2.18 5.41,-3.53 2.32,-1.37 4.91,-2.94 7.76,-4.72 2.28,4.43 4.99,8.58 8.13,12.47 z m 6.47,-28.72 c -3.46,2.42 -7.01,4.76 -10.64,7.04 -0.15,-0.56 -0.31,-1.09 -0.49,-1.59 -0.18,-0.5 -0.34,-1.03 -0.48,-1.61 -0.43,-1.71 -0.81,-3.54 -1.13,-5.5 -0.31,-1.97 -0.45,-3.88 -0.42,-5.73 0.03,-1.85 0.37,-3.62 1.02,-5.3 0.64,-1.68 1.75,-3.09 3.31,-4.23 1.35,-1.07 2.94,-1.77 4.76,-2.13 1.82,-0.36 3.64,-0.47 5.46,-0.33 1.82,0.15 3.51,0.56 5.07,1.24 1.58,0.68 2.79,1.51 3.65,2.51 0.86,1 1.29,2.14 1.29,3.43 0,1.28 -0.68,2.63 -2.04,4.06 -2.79,3 -5.91,5.71 -9.36,8.14 z M 861,181.53 c -1.56,5.17 -3.84,9.86 -6.84,14.06 -3,4.21 -6.59,7.94 -10.8,11.19 -4.21,3.24 -8.78,5.9 -13.7,7.97 -4.92,2.07 -10.07,3.55 -15.46,4.44 -5.38,0.89 -10.75,1.09 -16.11,0.59 -2.28,-0.22 -4.54,-0.59 -6.79,-1.12 -2.25,-0.54 -4.31,-1.37 -6.21,-2.52 -1.88,-1.15 -3.54,-2.66 -4.97,-4.55 -1.42,-1.89 -2.46,-4.3 -3.1,-7.21 0.28,-1.36 0.17,-2.34 -0.33,-2.94 -0.49,-0.62 -1.15,-0.92 -1.97,-0.92 -0.83,0 -1.74,0.27 -2.74,0.81 -1,0.53 -1.86,1.26 -2.57,2.19 -0.71,0.93 -1.18,1.98 -1.39,3.15 -0.22,1.18 0.04,2.45 0.76,3.8 2.35,3.78 5.26,6.94 8.72,9.47 3.46,2.53 7.27,4.47 11.44,5.83 4.17,1.35 8.6,2.08 13.26,2.18 4.68,0.12 9.41,-0.33 14.19,-1.33 4.99,-1.07 9.79,-2.71 14.39,-4.92 4.6,-2.21 8.88,-4.84 12.84,-7.9 3.96,-3.07 7.58,-6.54 10.86,-10.39 3.29,-3.86 6.14,-7.96 8.57,-12.3 2.42,-4.35 4.35,-8.88 5.78,-13.59 1.42,-4.71 2.28,-9.49 2.56,-14.35 0.35,-6.27 -0.73,-11.47 -3.27,-15.61 -2.53,-4.14 -5.9,-7.48 -10.1,-10.01 -4.22,-2.53 -8.92,-4.33 -14.13,-5.39 -5.21,-1.07 -10.31,-1.72 -15.3,-1.94 -5.63,-0.22 -11.5,0.05 -17.61,0.8 -6.09,0.75 -12.08,2 -17.96,3.75 -5.89,1.75 -11.56,3.94 -17.02,6.59 -5.46,2.64 -10.37,5.7 -14.72,9.19 -1.35,1.07 -2.74,2.31 -4.17,3.7 -1.43,1.39 -2.7,2.88 -3.8,4.48 -1.1,1.61 -2.01,3.3 -2.73,5.08 -0.71,1.78 -1.03,3.64 -0.96,5.57 0,1.14 0.2,2.32 0.58,3.54 0.4,1.21 0.97,2.33 1.72,3.36 0.75,1.03 1.64,1.87 2.67,2.52 1.04,0.65 2.21,0.97 3.49,0.97 2.42,0 4.19,-0.43 5.3,-1.29 1.1,-0.86 1.78,-1.81 2.03,-2.84 0.25,-1.03 0.14,-1.97 -0.33,-2.83 -0.46,-0.86 -1.05,-1.26 -1.77,-1.19 -1.99,-0.35 -3.73,-1.11 -5.23,-2.29 -1.5,-1.18 -2.25,-2.69 -2.25,-4.55 -0.08,-2.28 0.56,-4.42 1.92,-6.42 1.35,-2 3.21,-3.78 5.56,-5.34 4.85,-3.22 9.92,-6 15.21,-8.35 5.28,-2.35 10.62,-4.21 16.04,-5.56 5.43,-1.36 10.85,-2.17 16.27,-2.42 5.41,-0.25 10.72,0.09 15.94,1.01 3.42,0.65 7.17,1.56 11.23,2.74 4.07,1.18 7.89,2.82 11.45,4.92 3.57,2.1 6.59,4.75 9.05,7.92 2.46,3.17 3.86,7.04 4.22,11.61 0.42,5.92 -0.15,11.47 -1.72,16.64 z m -55.05,-15.25 c -1.24,3.99 -2.81,7.95 -4.7,11.88 -1.89,3.93 -3.95,7.57 -6.2,10.92 -2.25,3.34 -4.34,5.94 -6.27,7.8 -1.43,-0.29 -2.4,-0.09 -2.94,0.59 -0.53,0.68 -0.74,1.55 -0.64,2.62 0.1,1.07 0.48,2.17 1.11,3.32 0.65,1.14 1.43,2.02 2.36,2.62 0.93,0.61 1.96,0.81 3.11,0.59 1.15,-0.21 2.29,-1.14 3.42,-2.79 2.71,-4.92 5.07,-9.27 7.07,-13.05 2,-3.78 3.85,-7.58 5.56,-11.39 1.72,-3.82 3.34,-7.94 4.87,-12.36 1.53,-4.42 3.19,-9.74 4.97,-15.95 0.07,-1.35 -0.23,-2.24 -0.9,-2.67 -0.68,-0.43 -1.52,-0.53 -2.52,-0.32 -1,0.21 -2.05,0.64 -3.16,1.29 -1.1,0.63 -2.05,1.35 -2.84,2.14 -0.78,0.78 -1.26,1.57 -1.44,2.36 -0.18,0.78 0.16,1.38 1.02,1.81 0,3.06 -0.63,6.59 -1.88,10.59 z m 69.13,33.17 c 2.63,-0.5 5.38,-1.44 8.23,-2.83 2.85,-1.39 5.46,-3.05 7.81,-4.98 2.36,-1.93 4.29,-4.02 5.79,-6.26 1.5,-2.26 2.25,-4.41 2.25,-6.47 0,-1.57 -0.74,-2.74 -2.21,-3.49 -1.46,-0.75 -3.22,-0.83 -5.29,-0.26 -7.28,2 -13.19,5.71 -17.75,11.12 -2.72,3.15 -4.97,6.65 -6.75,10.5 -1.78,3.84 -2.68,7.81 -2.68,11.88 0,3.84 1,6.58 2.99,8.22 2,1.64 4.5,2.46 7.5,2.46 3.5,0 6.67,-0.54 9.51,-1.61 2.86,-1.06 5.46,-2.5 7.82,-4.31 2.35,-1.82 4.54,-3.92 6.58,-6.31 2.03,-2.4 4.05,-4.91 6.04,-7.55 0.79,-1.07 1.29,-2 1.5,-2.78 0.22,-0.79 0.24,-1.36 0.06,-1.72 -0.18,-0.35 -0.51,-0.44 -1.01,-0.26 -0.5,0.18 -1,0.65 -1.5,1.43 -0.43,0.58 -1.08,1.4 -1.94,2.47 -0.85,1.07 -2.14,2.46 -3.84,4.18 -2.43,2.49 -5,4.29 -7.71,5.4 -2.71,1.11 -5.21,1.59 -7.5,1.44 -2.28,-0.15 -4.17,-0.96 -5.67,-2.45 -1.49,-1.5 -2.23,-3.65 -2.23,-6.43 0,0 0,-1.39 0,-1.39 z m 7.97,-7.06 c -2.33,0.93 -4.73,1.43 -7.22,1.5 0.57,-2.07 1.39,-4 2.45,-5.78 1.07,-1.78 2.54,-3.17 4.39,-4.17 1,-0.57 2.03,-0.91 3.1,-1.02 1.07,-0.11 1.94,0.01 2.62,0.38 0.69,0.35 1.06,0.96 1.13,1.81 0.07,0.85 -0.32,1.92 -1.18,3.2 -1.21,1.8 -2.97,3.15 -5.29,4.08 z m 49.2,-21.41 c -2.43,0.5 -4.89,1.28 -7.39,2.32 -2.5,1.03 -4.89,2.24 -7.18,3.64 -2.28,1.38 -4.26,2.9 -5.93,4.54 -1.67,1.64 -2.94,3.35 -3.8,5.13 -0.86,1.78 -1.03,3.56 -0.53,5.34 -1.93,1.08 -3.73,2.29 -5.41,3.64 -1.68,1.36 -3.01,2.86 -4.01,4.5 -1,1.64 -1.58,3.41 -1.77,5.3 -0.18,1.89 0.23,3.83 1.23,5.83 0.65,1.28 1.6,2.55 2.85,3.8 1.25,1.25 2.73,2.37 4.44,3.37 1.7,1 3.61,1.78 5.71,2.34 2.11,0.57 4.34,0.79 6.69,0.66 1.72,-0.07 3.77,-0.47 6.16,-1.19 2.39,-0.71 4.61,-1.74 6.64,-3.11 2.03,-1.35 3.69,-3.06 4.97,-5.12 1.28,-2.07 1.7,-4.5 1.28,-7.28 -0.21,-1.35 -0.94,-2.6 -2.19,-3.74 -1.25,-1.14 -2.7,-2.22 -4.34,-3.22 -1.64,-1 -3.35,-1.96 -5.13,-2.89 -1.78,-0.92 -3.32,-1.89 -4.61,-2.89 0,0 3.44,-0.64 3.44,-0.64 5.92,-0.7 11.03,-0.7 15.34,0.02 4.33,0.71 7.27,1.84 8.83,3.4 0.72,0.72 1.26,1.3 1.61,1.72 0.35,0.43 0.6,0.78 0.75,1.07 0,0.29 0.13,0.52 0.38,0.7 0.25,0.18 0.5,0.25 0.75,0.22 0.25,-0.04 0.5,-0.21 0.75,-0.49 0.25,-0.29 0.41,-0.79 0.48,-1.5 0.06,-0.64 -0.19,-1.32 -0.76,-2.03 -0.57,-0.72 -1.3,-1.39 -2.19,-2.03 -0.89,-0.64 -1.89,-1.23 -3,-1.77 -1.11,-0.53 -2.19,-0.98 -3.25,-1.34 -4,-1.21 -8.32,-1.88 -12.95,-2.03 -4.64,-0.14 -8.99,0.25 -13.05,1.17 -0.87,-1.78 -0.87,-3.38 -0.02,-4.81 0.87,-1.43 2.24,-2.6 4.13,-3.53 1.89,-0.93 4.16,-1.49 6.79,-1.7 2.64,-0.22 5.32,-0.01 8.04,0.64 0.92,1.13 1.88,1.76 2.87,1.87 1,0.11 1.89,-0.13 2.67,-0.7 0.79,-0.57 1.42,-1.35 1.88,-2.35 0.47,-1 0.66,-2.01 0.59,-3.04 -0.07,-1.04 -0.52,-1.98 -1.34,-2.8 -0.81,-0.82 -2.08,-1.34 -3.78,-1.55 -2,-0.14 -4.22,0.03 -6.64,0.53 z m -29.54,34.3 c -0.07,-1.32 0.16,-2.57 0.69,-3.75 0.54,-1.17 1.35,-2.26 2.41,-3.26 1.07,-1 2.32,-1.89 3.75,-2.68 0.85,0.79 2.06,1.7 3.64,2.74 1.57,1.03 3.18,2.1 4.81,3.2 1.65,1.11 3.21,2.23 4.7,3.38 1.5,1.13 2.63,2.26 3.38,3.37 0.75,1.11 0.98,2.17 0.69,3.2 -0.28,1.04 -1.35,1.95 -3.21,2.74 -1.63,0.71 -3.41,1.08 -5.34,1.11 -1.93,0.04 -3.8,-0.19 -5.62,-0.69 -1.82,-0.5 -3.5,-1.19 -5.04,-2.08 -1.53,-0.89 -2.65,-1.94 -3.36,-3.15 -0.92,-1.43 -1.42,-2.8 -1.5,-4.13 z m 59.06,-41.78 c -0.71,1.28 -1.13,2.25 -1.26,2.89 -0.15,0.78 0.08,1.48 0.69,2.08 0.6,0.6 1.26,0.91 1.98,0.91 0.64,0 1.52,-0.2 2.62,-0.58 1.11,-0.4 2.21,-0.88 3.32,-1.46 1.1,-0.57 2.06,-1.21 2.89,-1.92 0.82,-0.71 1.3,-1.38 1.44,-2.03 0.07,-0.28 -0.09,-0.37 -0.49,-0.27 -0.39,0.11 -0.79,0.25 -1.22,0.43 -0.43,0.18 -0.76,0.23 -1.01,0.17 -0.25,-0.07 -0.17,-0.51 0.26,-1.3 0.43,-0.78 0.57,-1.38 0.42,-1.81 -0.13,-0.43 -0.38,-0.74 -0.75,-0.95 -0.35,-0.22 -0.74,-0.37 -1.17,-0.44 -0.43,-0.07 -0.71,-0.11 -0.86,-0.11 -0.35,0 -0.96,0.12 -1.81,0.37 -0.86,0.25 -1.68,0.63 -2.47,1.13 -1,0.64 -1.86,1.6 -2.58,2.89 z m -11.01,27.77 c -1.21,3.6 -2.03,7.13 -2.46,10.59 -0.42,3.46 -0.32,6.54 0.32,9.25 0.64,2.71 2.04,4.42 4.18,5.14 2.29,0.78 4.6,0.83 6.96,0.16 2.35,-0.68 4.65,-1.8 6.89,-3.36 2.25,-1.57 4.4,-3.45 6.47,-5.63 2.07,-2.17 3.97,-4.37 5.68,-6.58 1.14,-1.42 1.85,-2.64 2.13,-3.64 0.29,-1 0.31,-1.67 0.06,-2.03 -0.25,-0.35 -0.71,-0.4 -1.39,-0.15 -0.68,0.24 -1.4,0.86 -2.19,1.86 -0.71,0.85 -1.7,2.05 -2.95,3.59 -1.24,1.53 -2.65,2.91 -4.22,4.12 -1.57,1.21 -3.25,2.09 -5.03,2.63 -1.78,0.53 -3.56,0.23 -5.34,-0.92 -1.65,-1.07 -2.6,-2.57 -2.85,-4.5 -0.25,-1.93 -0.16,-4 0.27,-6.21 0.42,-2.2 1.05,-4.39 1.87,-6.57 0.82,-2.18 1.52,-4.06 2.1,-5.63 1.28,-0.93 1.88,-1.87 1.81,-2.83 -0.07,-0.95 -0.52,-1.61 -1.34,-1.97 -0.82,-0.36 -1.87,-0.31 -3.16,0.16 -1.28,0.46 -2.49,1.58 -3.62,3.36 -1.58,2.5 -2.97,5.55 -4.19,9.16 z m 59.75,-1.55 c -0.93,1.64 -1.98,3.22 -3.16,4.75 -1.18,1.53 -2.34,2.91 -3.48,4.12 -1.14,1.21 -2.25,2.27 -3.32,3.16 -1.07,0.9 -1.96,1.52 -2.67,1.87 -2.93,1.64 -5.4,2.36 -7.43,2.15 -2.04,-0.22 -3.5,-0.97 -4.4,-2.25 -0.89,-1.29 -1.14,-2.96 -0.75,-5.04 0.4,-2.07 1.56,-4.17 3.49,-6.31 1.78,-2.13 3.58,-3.8 5.39,-5.01 1.82,-1.22 3.53,-2.15 5.14,-2.8 1.6,-0.65 3.1,-1.07 4.48,-1.28 1.4,-0.22 2.63,-0.4 3.71,-0.53 0.85,-0.15 1.45,-0.7 1.81,-1.66 0.36,-0.97 0.47,-1.98 0.33,-3.05 -0.15,-1.07 -0.51,-2.03 -1.08,-2.89 -0.56,-0.86 -1.34,-1.22 -2.34,-1.07 -2.28,0.92 -4.82,2.26 -7.6,4.01 -2.78,1.75 -5.51,3.75 -8.18,6 -2.68,2.24 -5.16,4.7 -7.44,7.38 -2.28,2.68 -4.16,5.43 -5.63,8.25 -1.46,2.81 -2.33,5.66 -2.62,8.54 -0.28,2.89 0.29,5.69 1.72,8.41 0.72,1.41 1.8,2.32 3.26,2.72 1.46,0.39 3.12,0.38 4.97,-0.05 1.85,-0.43 3.83,-1.21 5.94,-2.36 2.1,-1.15 4.21,-2.54 6.31,-4.17 2.1,-1.65 4.13,-3.52 6.09,-5.63 1.97,-2.1 3.71,-4.33 5.21,-6.68 0,0 -1.08,3.64 -1.08,3.64 -2.28,7.13 -5.19,14.03 -8.72,20.7 -3.53,6.68 -7.76,12.44 -12.67,17.28 -1.08,1.07 -2.25,2.18 -3.53,3.31 -1.28,1.15 -2.64,2.16 -4.06,3.05 -1.43,0.9 -2.92,1.6 -4.46,2.1 -1.53,0.5 -3.08,0.67 -4.64,0.54 -2.64,-0.15 -4.94,-1.12 -6.9,-2.9 -1.96,-1.79 -3.12,-4.28 -3.49,-7.49 0.29,-0.93 0.21,-1.71 -0.25,-2.36 -0.47,-0.63 -1.13,-1.1 -1.98,-1.39 -0.87,-0.28 -1.79,-0.4 -2.78,-0.37 -1,0.04 -1.93,0.23 -2.79,0.59 -0.86,0.36 -1.56,0.9 -2.09,1.61 -0.53,0.72 -0.69,1.57 -0.48,2.56 1.57,5.07 3.61,8.96 6.11,11.67 2.49,2.71 6.05,4.32 10.68,4.82 4.08,0.5 8.12,-0.18 12.14,-2.04 4.03,-1.85 7.69,-4.35 10.97,-7.48 5.21,-5.5 9.71,-11.03 13.49,-16.59 3.78,-5.57 7,-11.35 9.68,-17.35 2.68,-5.99 4.87,-12.31 6.58,-18.98 1.71,-6.67 3.1,-13.89 4.17,-21.67 0.29,-0.93 0.13,-1.52 -0.48,-1.77 -0.61,-0.25 -1.41,-0.26 -2.41,-0.05 -1,0.22 -2.07,0.6 -3.22,1.13 -1.13,0.53 -2.11,1.14 -2.93,1.81 -0.82,0.68 -1.37,1.36 -1.66,2.05 -0.28,0.68 -0.03,1.23 0.75,1.66 0,0 -1.7,11.34 -1.7,11.34 z m 17.62,-4.02 c -1.28,3.17 -2.41,6.33 -3.38,9.47 -0.96,3.14 -1.74,6.19 -2.34,9.14 -0.61,2.96 -0.95,5.62 -1.02,7.97 -0.07,1.85 0.02,3.16 0.27,3.91 0.25,0.75 0.77,1.12 1.55,1.12 1.42,0 2.8,-0.5 4.12,-1.5 1.32,-0.99 2.82,-2.57 4.49,-4.75 1.67,-2.17 3.64,-4.99 5.89,-8.45 2.25,-3.46 5.01,-7.69 8.29,-12.69 -0.07,0.58 -0.2,1.38 -0.37,2.42 -0.18,1.04 -0.34,2.14 -0.49,3.32 -0.14,1.18 -0.29,2.3 -0.43,3.37 -0.14,1.06 -0.21,1.85 -0.21,2.35 0,1.07 0.04,2.53 0.11,4.39 0.07,1.85 0.34,3.65 0.8,5.4 0.47,1.74 1.23,3.27 2.3,4.6 1.07,1.32 2.61,1.98 4.61,1.98 2.35,0.07 4.67,-0.64 6.95,-2.14 2.28,-1.5 4.45,-3.3 6.52,-5.41 2.07,-2.1 4,-4.29 5.78,-6.58 1.79,-2.28 3.32,-4.17 4.61,-5.67 0.42,-0.5 0.69,-0.94 0.79,-1.33 0.12,-0.39 0.17,-0.7 0.17,-0.92 0,-0.42 -0.32,-0.71 -0.96,-0.86 -0.58,-0.07 -1.15,0.14 -1.72,0.64 -0.57,0.5 -1.28,1.24 -2.14,2.21 -0.86,0.96 -1.87,2.08 -3.05,3.37 -1.18,1.28 -2.59,2.71 -4.22,4.27 -2.28,2.15 -4.16,3.18 -5.62,3.11 -1.47,-0.07 -2.63,-0.71 -3.49,-1.92 -0.85,-1.22 -1.44,-2.79 -1.76,-4.72 -0.32,-1.93 -0.44,-3.71 -0.36,-5.35 0.07,-3.42 0.71,-6.92 1.92,-10.48 1.21,-3.57 2.74,-6.82 4.59,-9.74 0.22,-0.92 0.33,-1.64 0.33,-2.14 0.07,-1.42 -0.46,-2.14 -1.61,-2.14 -1.43,0 -2.87,0.49 -4.33,1.46 -1.46,0.96 -2.87,2.16 -4.23,3.62 -1.36,1.46 -2.66,3.01 -3.91,4.66 -1.24,1.63 -2.36,3.1 -3.36,4.39 -1.93,2.56 -3.69,5.08 -5.29,7.54 -1.61,2.47 -3.41,4.94 -5.41,7.43 0.5,-2.14 1.09,-4.43 1.77,-6.89 0.67,-2.47 1.31,-4.85 1.92,-7.13 0.6,-2.28 1.11,-4.36 1.54,-6.25 0.44,-1.89 0.73,-3.34 0.86,-4.34 1.78,-1.28 2.68,-2.24 2.68,-2.89 0.07,-0.64 -0.5,-0.96 -1.71,-0.96 -1.15,0 -2.51,0.36 -4.08,1.08 -1.56,0.71 -2.7,1.74 -3.4,3.1 -1.37,2.78 -2.69,5.76 -3.97,8.93 z M 59.23,3 c 20.82,0 33.02,9.47 33.02,26.48 0,16.74 -12.2,26.9 -33.16,26.9 0,0 -21.92,0 -21.92,0 0,0 0,30.84 0,30.84 0,7.81 3.16,10.42 13.02,10.42 0,0 7.12,0 7.12,0 0,0 0,1.36 0,1.36 0,0 -56.43,0 -56.43,0 0,0 0,-1.36 0,-1.36 0,0 4.65,0 4.65,0 6.99,0 9.17,-2.33 9.17,-9.33 0,0 0,-74.73 0,-74.73 0,-6.74 -2.47,-9.2 -9.17,-9.2 0,0 -4.8,0 -4.8,0 0,0 0,-1.38 0,-1.38 0,0 58.5,0 58.5,0 z m -8.21,52 c 12.73,0 19.31,-9.33 19.31,-24.97 0,-17.01 -6.58,-25.65 -18.91,-25.65 0,0 -11.51,0 -11.51,0 -2.05,0 -2.74,0.68 -2.74,2.74 0,0 0,47.88 0,47.88 0,0 13.85,0 13.85,0 z m 133.1,43.33 c 0,0 -0.68,0.67 -0.68,0.67 0,0 -83.71,0 -83.71,0 0,0 0,-1.36 0,-1.36 0,0 4.52,0 4.52,0 6.98,0 9.19,-2.33 9.19,-9.31 0,0 0,-74.74 0,-74.74 0,-7.01 -2.21,-9.21 -9.19,-9.21 0,0 -4.52,0 -4.52,0 0,0 0,-1.38 0,-1.38 0,0 81.65,0 81.65,0 0,0 0.68,0.69 0.68,0.69 0,0 4.39,35.04 4.39,35.04 0,0 -1.37,0.29 -1.37,0.29 -6.72,-27.36 -13.56,-34.64 -25.75,-34.64 0,0 -20.69,0 -20.69,0 -2.06,0 -2.75,0.68 -2.75,2.74 0,0 0,42.88 0,42.88 0,0 14.8,0 14.8,0 11.23,0 14.93,-4.39 14.93,-17.72 0,0 1.38,0 1.38,0 0,0 0,37.3 0,37.3 0,0 -1.38,0 -1.38,0 0,-13.69 -3.7,-18.2 -14.93,-18.2 0,0 -14.8,0 -14.8,0 0,0 0,43.39 0,43.39 0,2.04 0.69,2.73 2.75,2.87 0,0 23.02,0 23.02,0 13.01,0.14 20.68,-9.45 26.15,-35.72 0,0 1.38,0.13 1.38,0.13 0,0 -5.07,36.28 -5.07,36.28 z M 302.17,84.77 c 0,9.34 -6.29,15.23 -17.53,15.23 -12.87,0 -20.41,-7.95 -20.41,-23.62 0,-22 -4.79,-27.38 -17.12,-27.38 0,0 -14.94,0 -14.94,0 0,0 0,39.22 0,39.22 0,7.06 2.33,9.42 9.31,9.42 0,0 4.94,0 4.94,0 0,0 0,1.36 0,1.36 0,0 -50.69,0 -50.69,0 0,0 0,-1.36 0,-1.36 0,0 4.66,0 4.66,0 7.13,0 9.45,-2.36 9.45,-9.42 0,0 0,-74.75 0,-74.75 0,-6.92 -2.32,-9.09 -9.31,-9.09 0,0 -4.8,0 -4.8,0 0,0 0,-1.38 0,-1.38 0,0 62.19,0 62.19,0 18.91,0 29.19,8.56 29.19,21.31 0,13.57 -11.78,22.92 -27.81,22.92 0,0 0,0.41 0,0.41 17.95,0 28.08,8.52 28.08,28.33 0,13.87 1.78,19.11 6.43,19.11 4.25,0 7,-4.55 7,-10.31 0,0 1.36,0 1.36,0 z M 247.11,47.23 c 12.05,0 18.22,-8.54 18.22,-22.25 0,-13.01 -6.17,-20.46 -16.86,-20.46 0,0 -13.56,0 -13.56,0 -2.05,0 -2.74,0.67 -2.74,2.7 0,0 0,40.01 0,40.01 0,0 14.94,0 14.94,0 z m 165.06,37.54 c 0,9.34 -6.29,15.23 -17.53,15.23 -12.87,0 -20.41,-7.95 -20.41,-23.62 0,-22 -4.79,-27.38 -17.12,-27.38 0,0 -14.94,0 -14.94,0 0,0 0,39.22 0,39.22 0,7.06 2.33,9.42 9.31,9.42 0,0 4.94,0 4.94,0 0,0 0,1.36 0,1.36 0,0 -50.69,0 -50.69,0 0,0 0,-1.36 0,-1.36 0,0 4.66,0 4.66,0 7.13,0 9.45,-2.36 9.45,-9.42 0,0 0,-74.75 0,-74.75 0,-6.92 -2.32,-9.09 -9.31,-9.09 0,0 -4.8,0 -4.8,0 0,0 0,-1.38 0,-1.38 0,0 62.19,0 62.19,0 18.91,0 29.19,8.56 29.19,21.31 0,13.57 -11.78,22.92 -27.81,22.92 0,0 0,0.41 0,0.41 17.95,0 28.08,8.52 28.08,28.33 0,13.87 1.78,19.11 6.43,19.11 4.25,0 7,-4.55 7,-10.31 0,0 1.36,0 1.36,0 z M 357.11,47.23 c 12.05,0 18.22,-8.54 18.22,-22.25 0,-13.01 -6.17,-20.46 -16.86,-20.46 0,0 -13.56,0 -13.56,0 -2.05,0 -2.74,0.67 -2.74,2.7 0,0 0,40.01 0,40.01 0,0 14.94,0 14.94,0 z M 508.44,4.38 c 0,0 -1.64,0 -1.64,0 -6.32,0 -11.38,4.24 -18.22,17.14 0,0 -19.88,37.31 -19.88,37.31 0,0 0,29.2 0,29.2 0,7.28 2.47,9.61 10.14,9.61 0,0 4.94,0 4.94,0 0,0 0,1.36 0,1.36 0,0 -53.56,0 -53.56,0 0,0 0,-1.36 0,-1.36 0,0 5.34,0 5.34,0 7.94,0 10.55,-2.33 10.55,-9.61 0,0 0,-26.59 0,-26.59 0,0 -26.86,-49.24 -26.86,-49.24 -3.42,-6.31 -6.7,-7.82 -13.42,-7.82 0,0 -2.47,0 -2.47,0 0,0 0,-1.38 0,-1.38 0,0 51.92,0 51.92,0 0,0 0,1.38 0,1.38 0,0 -4.8,0 -4.8,0 -3.82,0 -6.29,2.2 -6.29,5.35 0,1.91 0.69,3.71 1.64,5.61 0,0 22.33,40.88 22.33,40.88 0,0 17.4,-32.78 17.4,-32.78 2.47,-4.52 3.97,-8.22 3.97,-11.11 0,-5.35 -3.97,-7.95 -12.06,-7.95 0,0 -4.24,0 -4.24,0 0,0 0,-1.38 0,-1.38 0,0 35.21,0 35.21,0 0,0 0,1.38 0,1.38 z m 47.68,56.96 c 2.76,24.11 18.5,37.61 36.72,38.02 10.83,0.14 19.05,-6.61 19.05,-15.98 0,-23.41 -57.55,-16.8 -57.55,-53.18 0,-16.81 13.99,-29.2 33.44,-29.2 16.99,0 23.69,8.41 30.41,8.41 3.42,0 5.06,-2.35 5.06,-8.27 0,0 1.37,0 1.37,0 0,0 0,30.86 0,30.86 0,0 -1.37,0 -1.37,0 -4.23,-17.78 -16.84,-29.48 -33.69,-29.48 -10.56,0 -17.81,7.7 -17.81,16.53 0,28.11 58.36,19.83 58.36,54 0,16.67 -13.42,27.95 -34.53,27.95 -20.69,0 -27.39,-11.56 -34.25,-11.56 -3.42,0 -5.21,3.45 -5.21,9.56 0,0 -1.23,0 -1.23,0 0,0 0,-37.66 0,-37.66 0,0 1.23,0 1.23,0 z M 813.73,4.38 c -6.98,0 -9.31,2.18 -9.31,9.14 0,0 0,74.73 0,74.73 0,7.05 2.33,9.39 9.31,9.39 0,0 4.39,0 4.39,0 0,0 0,1.36 0,1.36 0,0 -49.04,0 -49.04,0 0,0 0,-1.36 0,-1.36 0,0 3.83,0 3.83,0 6.86,0 9.18,-2.34 9.18,-9.39 0,0 0,-35.87 0,-35.87 0,0 -42.2,0 -42.2,0 0,0 0,35.87 0,35.87 0,7.05 2.2,9.39 9.19,9.39 0,0 3.83,0 3.83,0 0,0 0,1.36 0,1.36 0,0 -49.18,0 -49.18,0 0,0 0,-1.36 0,-1.36 0,0 4.52,0 4.52,0 6.98,0 9.19,-2.34 9.19,-9.39 0,0 0,-74.73 0,-74.73 0,-6.96 -2.21,-9.14 -9.19,-9.14 0,0 -4.52,0 -4.52,0 0,0 0,-1.38 0,-1.38 0,0 49.18,0 49.18,0 0,0 0,1.38 0,1.38 0,0 -3.83,0 -3.83,0 -6.99,0 -9.19,2.18 -9.19,9.14 0,0 0,37.48 0,37.48 0,0 42.2,0 42.2,0 0,0 0,-37.48 0,-37.48 0,-6.96 -2.32,-9.14 -9.31,-9.14 0,0 -3.7,0 -3.7,0 0,0 0,-1.38 0,-1.38 0,0 49.04,0 49.04,0 0,0 0,1.38 0,1.38 0,0 -4.39,0 -4.39,0 z m 109.61,43.73 c 0,34.58 -21.92,52.89 -51.92,52.89 -26.17,0 -47.95,-16.66 -47.95,-48.2 0,-30.3 20.42,-51.8 51.92,-51.8 27.95,0 47.95,18.33 47.95,47.11 z m -75.48,4.69 c 0,28.65 9.86,46.84 25.34,46.84 15.07,0 25.75,-17.91 25.75,-52.48 0,-28.8 -9.31,-44.78 -25.06,-44.78 -15.48,0 -26.03,17.78 -26.03,50.42 z M 1061.2,4.38 c -7.53,0 -10.26,2.74 -10.26,10.29 0,0 0,72.95 0,72.95 0,7 2.18,10.02 9.17,10.02 0,0 4.8,0 4.8,0 0,0 0,1.36 0,1.36 0,0 -49.33,0 -49.33,0 0,0 0,-1.36 0,-1.36 0,0 3.7,0 3.7,0 6.99,0 9.19,-3.02 9.19,-10.02 0,0 0,-78.17 0,-78.17 0,0 -39.59,89.55 -39.59,89.55 0,0 -1.1,0 -1.1,0 0,0 -43.44,-83.23 -43.44,-83.23 0,0 0,63.07 0,63.07 0,14.55 3.02,18.8 12.33,18.8 0,0 4.94,0 4.94,0 0,0 0,1.36 0,1.36 0,0 -32.88,0 -32.88,0 0,0 0,-1.36 0,-1.36 0,0 3.83,0 3.83,0 7.96,0 10.42,-4.25 10.42,-18.8 0,0 0,-65.28 0,-65.28 0,-6.72 -2.46,-9.18 -9.32,-9.18 0,0 -4.24,0 -4.24,0 0,0 0,-1.38 0,-1.38 0,0 33.97,0 33.97,0 0,0 35.49,69.81 35.49,69.81 0,0 30.95,-69.81 30.95,-69.81 0,0 35.08,0 35.08,0 0,0 0,1.38 0,1.38 0,0 -3.71,0 -3.71,0 z m 93.92,93.95 c 0,0 -0.68,0.67 -0.68,0.67 0,0 -83.71,0 -83.71,0 0,0 0,-1.36 0,-1.36 0,0 4.52,0 4.52,0 6.98,0 9.19,-2.33 9.19,-9.31 0,0 0,-74.74 0,-74.74 0,-7.01 -2.21,-9.21 -9.19,-9.21 0,0 -4.52,0 -4.52,0 0,0 0,-1.38 0,-1.38 0,0 81.65,0 81.65,0 0,0 0.68,0.69 0.68,0.69 0,0 4.39,35.04 4.39,35.04 0,0 -1.37,0.29 -1.37,0.29 -6.72,-27.36 -13.56,-34.64 -25.75,-34.64 0,0 -20.69,0 -20.69,0 -2.06,0 -2.75,0.68 -2.75,2.74 0,0 0,42.88 0,42.88 0,0 14.8,0 14.8,0 11.23,0 14.93,-4.39 14.93,-17.72 0,0 1.38,0 1.38,0 0,0 0,37.3 0,37.3 0,0 -1.38,0 -1.38,0 0,-13.69 -3.7,-18.2 -14.93,-18.2 0,0 -14.8,0 -14.8,0 0,0 0,43.39 0,43.39 0,2.04 0.69,2.73 2.75,2.87 0,0 23.02,0 23.02,0 13.01,0.14 20.68,-9.45 26.15,-35.72 0,0 1.38,0.13 1.38,0.13 0,0 -5.07,36.28 -5.07,36.28 z M 1158,111 c 0,0 0,2 0,2 0,0 -1157,0 -1157,0 0,0 0,-2 0,-2 0,0 1157,0 1157,0 z M 518.24,9 c 1.19,-7.88 11.04,-10.26 16.11,-4.61 8.68,9.68 -1.94,29.74 -13.35,25.61 9.35923,-1.291912 13.29424,-7.151547 15,-15 -10.17,7.52 -19.13,3.04 -17.76,-6 z"
     inkscape:connector-curvature="0" />
</svg>
